<?xml version="1.0" encoding="utf-8"?>
<!-- Generator: Adobe Illustrator 16.0.0, SVG Export Plug-In . SVG Version: 6.00 Build 0)  -->
<!DOCTYPE svg PUBLIC "-//W3C//DTD SVG 1.1//EN" "http://www.w3.org/Graphics/SVG/1.1/DTD/svg11.dtd">
<svg version="1.1" id="Layer_1" xmlns="http://www.w3.org/2000/svg" xmlns:xlink="http://www.w3.org/1999/xlink" x="0px" y="0px"
	 width="30px" height="30px" viewBox="0 0 30 30" enable-background="new 0 0 30 30" xml:space="preserve">
<g>
	<path fill="#FB7820" d="M6.508,16.5h15.586l-5.293,5.293c-0.391,0.391-0.391,1.023,0,1.414s1.023,0.391,1.414,0l7-7
		c0.391-0.391,0.391-1.023,0-1.414l-7-7C18.02,7.598,17.764,7.5,17.508,7.5s-0.512,0.098-0.707,0.293
		c-0.391,0.391-0.391,1.023,0,1.414l5.293,5.293H6.508c-0.552,0-1,0.448-1,1C5.508,16.053,5.956,16.5,6.508,16.5z"/>
</g>
</svg>
