<?xml version="1.0" encoding="utf-8"?>
<!-- Generator: Adobe Illustrator 16.0.0, SVG Export Plug-In . SVG Version: 6.00 Build 0)  -->
<!DOCTYPE svg PUBLIC "-//W3C//DTD SVG 1.1//EN" "http://www.w3.org/Graphics/SVG/1.1/DTD/svg11.dtd">
<svg version="1.1" id="Layer_1" xmlns="http://www.w3.org/2000/svg" xmlns:xlink="http://www.w3.org/1999/xlink" x="0px" y="0px"
	 width="900px" height="295px" viewBox="0 0 900 295" enable-background="new 0 0 900 295" xml:space="preserve">
<ellipse transform="matrix(0.9936 0.1134 -0.1134 0.9936 4.8315 -7.9701)" fill="#EBEBEB" cx="72.5" cy="38.5" rx="26.5" ry="39.5"/>
<ellipse fill="#EBEBEB" cx="225" cy="46.25" rx="22" ry="27.75"/>
<ellipse transform="matrix(0.9846 0.1747 -0.1747 0.9846 23.5228 -148.1456)" fill="#EBEBEB" cx="853" cy="59.5" rx="36" ry="48.5"/>
<ellipse transform="matrix(0.9997 -0.0262 0.0262 0.9997 -4.4519 3.8122)" fill="#EBEBEB" cx="143" cy="171.5" rx="16" ry="28.5"/>
<ellipse transform="matrix(0.9906 -0.1366 0.1366 0.9906 -14.0151 100.7124)" fill="#EBEBEB" cx="727" cy="152.5" rx="32" ry="47.5"/>
<path fill="none" stroke="#EBEBEB" stroke-miterlimit="10" d="M143.774,199.487c0,0-20.284,25.468,6.381,40.501
	c26.665,15.032,6.07,38.524,6.07,38.524"/>
<path fill="none" stroke="#EBEBEB" stroke-miterlimit="10" d="M729,278c0,0-24-22,0-41s0-39,0-39"/>
<path fill="none" stroke="#EBEBEB" stroke-miterlimit="10" d="M853,99c0,0-24,22,0,41s0,39,0,39"/>
<path fill="none" stroke="#EBEBEB" stroke-miterlimit="10" d="M222,148c0,0-24-22,0-41s0-39,0-39"/>
<path fill="none" stroke="#EBEBEB" stroke-miterlimit="10" d="M72,74c0,0-24,22,0,41s0,39,0,39"/>
<circle fill="none" stroke="#FEC62E" stroke-miterlimit="10" cx="61" cy="245" r="6"/>
<circle fill="none" stroke="#75D86B" stroke-miterlimit="10" cx="734.333" cy="64.833" r="5.333"/>
<circle fill="none" stroke="#6DC2E5" stroke-miterlimit="10" cx="809" cy="155.5" r="3"/>
<circle fill="none" stroke="#6DC2E5" stroke-miterlimit="10" cx="847.667" cy="211.333" r="5.333"/>
<circle fill="none" stroke="#75D86B" stroke-miterlimit="10" cx="149" cy="84" r="6"/>
<circle fill="none" stroke="#6DC2E5" stroke-miterlimit="10" cx="207.167" cy="249.167" r="4.167"/>
<circle fill="none" stroke="#FB7820" stroke-miterlimit="10" cx="169" cy="53.5" r="10"/>
<circle fill="none" stroke="#75D86B" stroke-miterlimit="10" cx="18" cy="130" r="2"/>
<circle fill="none" stroke="#FB7820" stroke-miterlimit="10" cx="658" cy="167.333" r="9"/>
<circle fill="none" stroke="#FEC62E" stroke-miterlimit="10" cx="316.833" cy="191.166" r="7.833"/>
<circle fill="none" stroke="#FEC62E" stroke-miterlimit="10" cx="619.833" cy="45.166" r="7.833"/>
<polygon fill="#EBEBEB" points="65.492,75.712 61,80.294 72.859,83.663 70.434,77.329 "/>
<polygon fill="#EBEBEB" points="230.367,71.712 234.859,76.294 223,79.663 225.426,73.329 "/>
<polygon fill="#EBEBEB" points="139.713,199.621 136.439,202.961 145.083,205.417 143.315,200.8 "/>
<polygon fill="#EBEBEB" points="735.367,197.712 739.859,202.294 728,205.663 730.426,199.329 "/>
<polygon fill="#EBEBEB" points="843.492,103.712 839,108.294 850.859,111.663 848.434,105.329 "/>
</svg>
