<?xml version="1.0" encoding="utf-8"?>
<!-- Generator: Adobe Illustrator 16.0.0, SVG Export Plug-In . SVG Version: 6.00 Build 0)  -->
<!DOCTYPE svg PUBLIC "-//W3C//DTD SVG 1.1//EN" "http://www.w3.org/Graphics/SVG/1.1/DTD/svg11.dtd">
<svg version="1.1" id="Layer_1" xmlns="http://www.w3.org/2000/svg" xmlns:xlink="http://www.w3.org/1999/xlink" x="0px" y="0px"
	 width="152.528px" height="190.082px" viewBox="0 0 152.528 190.082" enable-background="new 0 0 152.528 190.082"
	 xml:space="preserve">
<g>
	<path fill="#E6E6E6" d="M100.131,47.806L75.705,17.452c-0.947-1.176-2.68-1.357-3.842-0.417c-1.184,0.948-1.368,2.669-0.417,3.849
		l24.423,30.354c0.542,0.673,1.337,1.023,2.132,1.023c0.605,0,1.212-0.2,1.714-0.606C100.894,50.707,101.083,48.985,100.131,47.806z
		 M87.878,56.641L52.846,40.781c-1.383-0.624-3.005-0.014-3.628,1.365c-0.62,1.375-0.008,2.997,1.365,3.621L85.62,61.626
		c0.363,0.167,0.748,0.246,1.126,0.246c1.044,0,2.035-0.599,2.494-1.61C89.868,58.886,89.254,57.264,87.878,56.641z M0.008,164.059
		c-0.1,2.334,0.771,4.651,2.374,6.354l12.723,12.944c2.53,2.808,9.287,6.34,19.651,6.692c0.566,0.021,1.154,0.032,1.753,0.032
		c15.87,0,41.377-7.228,75.383-40.022c59.744-57.577,36.038-90.692,35.788-91.021l-2.522-2.94l-9.424-10.257
		c-3.164-3.354-7.844-3.503-11.144-0.396c-0.019,0.018-0.039,0.036-0.061,0.057c-0.624,0.609-27.891,27.149-27.891,27.149
		c-0.043,0.046-0.086,0.093-0.132,0.143c-2.16,1.825-7.316,6.479-3.999,11.077c0.125,0.199,0.271,0.389,0.438,0.552l10.456,10.161
		l3.354,2.884c2.483,2.672,0.772,7.014-6.313,15.285c-7.206,8.375-16.258,16.899-25.499,23.991
		c-13.04,9.982-17.146,11.818-19.904,8.899l-12.366-12.986c-3.107-3.266-8.515-3.422-11.797-0.346
		c-0.031,0.027-0.064,0.057-0.092,0.085L2.389,158.741C0.953,160.024,0.094,161.924,0.008,164.059z M138.311,56.836
		c-5.599,5.435-27.36,26.551-32.977,32l-8.343-8.111c-0.068-0.143-0.039-1.166,3.314-3.974c0.153-0.128,0.292-0.267,0.41-0.424
		c21.044-20.481,26.229-25.531,27.591-26.921l0.028,0.029c0.527-0.492,1.084-0.738,1.64-0.738c0.606,0,1.201,0.292,1.75,0.873
		L138.311,56.836z M18.744,179.266c5.791-5.57,25.892-24.915,31.704-30.51l0.631,0.659c6.854,7.252,15.831,0.374,27.196-8.325
		c9.533-7.32,18.881-16.116,26.322-24.772c4.562-5.321,13.051-15.225,5.934-22.802l-1.145-0.987
		c22.078-21.418,29.865-28.978,32.606-31.636l1.425,1.576c5.931,7.901,11.391,38.628-35.324,83.65
		c-35.695,34.427-61.174,38.893-73.155,38.461c-9.27-0.317-14.438-3.41-15.877-5L18.744,179.266z M5.476,164.287
		c0.024-0.635,0.249-1.18,0.602-1.497l28.515-26.454c0.028-0.029,0.057-0.054,0.089-0.082c1.127-0.994,2.997-0.916,4.031,0.178
		l7.965,8.361c-2.813,2.701-10.56,10.153-31.797,30.588l-8.55-8.76C5.761,166.019,5.44,165.156,5.476,164.287z M114.48,39.459
		L103.802,1.985c-0.42-1.451-1.928-2.292-3.386-1.882c-1.454,0.414-2.295,1.928-1.886,3.382l10.682,37.474
		c0.342,1.201,1.436,1.985,2.63,1.985c0.249,0,0.499-0.032,0.749-0.104C114.044,42.428,114.889,40.913,114.48,39.459z"/>
</g>
</svg>
