<?xml version="1.0" encoding="utf-8"?>
<!-- Generator: Adobe Illustrator 16.0.0, SVG Export Plug-In . SVG Version: 6.00 Build 0)  -->
<!DOCTYPE svg PUBLIC "-//W3C//DTD SVG 1.1//EN" "http://www.w3.org/Graphics/SVG/1.1/DTD/svg11.dtd">
<svg version="1.1" id="Layer_1" xmlns="http://www.w3.org/2000/svg" xmlns:xlink="http://www.w3.org/1999/xlink" x="0px" y="0px"
	 width="100px" height="100px" viewBox="0 0 100 100" enable-background="new 0 0 100 100" xml:space="preserve">
<g opacity="0.4">
	<path fill="#D7D7D7" d="M65.229,77.221c13.829,0,22.779-13.017,22.779-25.83c0-1.628-0.203-3.661-1.424-3.661
		c-0.407,0-1.017,0.61-1.017,1.423c0,0.609,0,1.221,0,1.83c0,7.322-5.899,12.408-14.442,12.408
		c-13.219,0-18.102-8.543-18.102-19.119c0-11.187,8.949-20.137,20.137-20.137c12,0,20.949,9.56,20.949,22.169
		c0,13.628-7.933,33.561-27.662,33.561c-2.236,0-7.118-0.406-7.118-2.441c0-0.406,0.407-0.609,1.423-0.609c0.205,0,0.407,0,0.611,0
		C62.787,77.018,64.008,77.221,65.229,77.221z M18.244,77.221c13.831,0,22.781-13.017,22.781-25.83c0-1.628-0.204-3.661-1.423-3.661
		c-0.407,0-1.018,0.61-1.018,1.423c0,0.609,0,1.221,0,1.83c0,7.322-5.897,12.408-14.44,12.408c-13.221,0-18.102-8.543-18.102-19.119
		c0-11.187,8.95-20.137,20.136-20.137c12,0,20.949,9.56,20.949,22.169c0,13.628-7.932,33.561-27.662,33.561
		c-2.237,0-7.118-0.406-7.118-2.441c0-0.406,0.407-0.609,1.423-0.609c0.203,0,0.407,0,0.609,0
		C15.804,77.018,17.024,77.221,18.244,77.221z"/>
</g>
</svg>
