<?xml version="1.0" encoding="utf-8"?>
<!-- Generator: Adobe Illustrator 16.0.0, SVG Export Plug-In . SVG Version: 6.00 Build 0)  -->
<!DOCTYPE svg PUBLIC "-//W3C//DTD SVG 1.1//EN" "http://www.w3.org/Graphics/SVG/1.1/DTD/svg11.dtd">
<svg version="1.1" id="Layer_1" xmlns="http://www.w3.org/2000/svg" xmlns:xlink="http://www.w3.org/1999/xlink" x="0px" y="0px"
	 width="405.5px" height="79.5px" viewBox="0 0 405.5 79.5" enable-background="new 0 0 405.5 79.5" xml:space="preserve">
<g>
	<path fill-rule="evenodd" clip-rule="evenodd" fill="#FB7820" d="M51.064,19.243c-0.168-0.02-0.343,0.028-0.473,0.163
		c-0.001,0.002-0.001,0.004-0.003,0.005c-0.107,0.108-0.176,0.258-0.176,0.426c0,0.185,0.086,0.343,0.214,0.452l6.224,5.887
		c0.12,0.125,0.279,0.179,0.436,0.17c0.157,0.009,0.316-0.045,0.437-0.17l6.258-5.919c0.225-0.235,0.225-0.615,0-0.851
		c-0.129-0.135-0.304-0.183-0.472-0.163h-3.371c0-4.914-3.842-8.898-8.581-8.898c-1.215,0-2.37,0.266-3.418,0.738
		c3.574,0.702,6.289,4.239,6.289,8.15C54.232,19.233,51.064,19.243,51.064,19.243z M55.562,20.43h-3.073l4.798,4.537l4.799-4.537
		h-3.091c0,0,0.015-1.481,0.006-1.79c-0.126-4.185-4.721-7.091-6.871-7.11c1.583,1.278,3.442,4.639,3.442,7.11
		C55.571,19.028,55.562,20.43,55.562,20.43z"/>
</g>
<g>
	<path fill-rule="evenodd" clip-rule="evenodd" fill="#FB7820" d="M78,18.354c0-3.866,3.134-7,7-7s7,3.134,7,7c0,3.865-3.134,7-7,7
		S78,22.219,78,18.354z M91.125,18.354c0-3.383-2.743-6.125-6.125-6.125c-3.383,0-6.125,2.742-6.125,6.125s2.742,6.125,6.125,6.125
		C88.382,24.479,91.125,21.736,91.125,18.354z M84.615,20.338l-3.35-3.351c-0.171-0.17-0.171-0.448,0-0.618
		c0.17-0.171,0.448-0.171,0.618,0L85,19.484l3.115-3.115c0.171-0.171,0.448-0.171,0.618,0c0.171,0.17,0.171,0.448,0,0.618
		l-3.35,3.351c-0.104,0.104-0.248,0.137-0.384,0.113C84.864,20.475,84.72,20.442,84.615,20.338z"/>
</g>
<g>
	<path fill-rule="evenodd" clip-rule="evenodd" fill="#FB7820" d="M112.11,25.345c-3.866,0-7-3.134-7-7s3.134-7,7-7
		c3.865,0,7,3.134,7,7S115.976,25.345,112.11,25.345z M112.11,12.22c-3.383,0-6.125,2.742-6.125,6.125s2.742,6.125,6.125,6.125
		s6.125-2.742,6.125-6.125S115.493,12.22,112.11,12.22z M114.095,18.73l-3.351,3.35c-0.17,0.172-0.448,0.172-0.618,0
		c-0.171-0.17-0.171-0.447,0-0.618l3.115-3.116l-3.115-3.115c-0.171-0.172-0.171-0.447,0-0.618c0.17-0.171,0.448-0.171,0.618,0
		l3.351,3.35c0.104,0.104,0.137,0.248,0.113,0.384C114.231,18.481,114.199,18.625,114.095,18.73z"/>
</g>
<g>
	<path fill="#FB7820" d="M151.664,24.689l-3.87-3.869c0.84-1.051,1.342-2.382,1.342-3.831c0-3.389-2.747-6.136-6.136-6.136
		c-3.39,0-6.137,2.747-6.137,6.136c0,3.39,2.747,6.137,6.137,6.137c1.448,0,2.78-0.502,3.83-1.342l3.869,3.869
		c0.133,0.134,0.308,0.2,0.482,0.2s0.349-0.066,0.482-0.2C151.93,25.388,151.93,24.955,151.664,24.689z M143,21.763
		c-2.637,0-4.773-2.138-4.773-4.773s2.137-4.772,4.773-4.772c2.636,0,4.772,2.137,4.772,4.772S145.636,21.763,143,21.763z"/>
</g>
<g>
	<path fill-rule="evenodd" clip-rule="evenodd" fill="#FFFFFF" d="M188.689,24.324l-9.434,8.207c-0.31,0.294-0.812,0.294-1.121,0
		c-0.31-0.295-0.31-0.771,0-1.065L187,23.754l-8.865-7.712c-0.31-0.294-0.31-0.771,0-1.065c0.31-0.294,0.812-0.294,1.121,0
		l9.434,8.207c0.165,0.157,0.235,0.365,0.225,0.57C188.925,23.959,188.854,24.167,188.689,24.324z"/>
</g>
<g>
	<path fill-rule="evenodd" clip-rule="evenodd" fill="#FFFFFF" d="M227.842,29.034l-8.207-9.433c-0.294-0.31-0.294-0.812,0-1.121
		c0.295-0.31,0.771-0.31,1.065,0l7.712,8.865l7.712-8.865c0.294-0.31,0.771-0.31,1.065,0c0.294,0.31,0.294,0.812,0,1.121
		l-8.208,9.433c-0.157,0.165-0.365,0.235-0.57,0.225C228.208,29.27,228,29.199,227.842,29.034z"/>
</g>
<g>
	<path fill-rule="evenodd" clip-rule="evenodd" fill="#FB7820" d="M282.223,35.854c-6.075,0-11-4.925-11-11s4.925-11,11-11
		s11,4.925,11,11S288.298,35.854,282.223,35.854z M282.223,15.229c-5.316,0-9.625,4.31-9.625,9.625s4.309,9.625,9.625,9.625
		c5.315,0,9.625-4.31,9.625-9.625S287.538,15.229,282.223,15.229z M285.341,25.458l-5.265,5.264c-0.268,0.269-0.703,0.269-0.972,0
		s-0.269-0.704,0-0.973L284,24.854l-4.896-4.896c-0.269-0.268-0.269-0.703,0-0.972s0.704-0.269,0.972,0l5.265,5.264
		c0.165,0.165,0.216,0.391,0.179,0.604C285.557,25.066,285.506,25.293,285.341,25.458z"/>
</g>
<g>
	<path fill-rule="evenodd" clip-rule="evenodd" fill="#FB7820" d="M316.898,25.345c0-6.075,4.926-11,11-11c6.076,0,11,4.925,11,11
		s-4.924,11-11,11C321.824,36.345,316.898,31.42,316.898,25.345z M337.523,25.345c0-5.316-4.309-9.625-9.625-9.625
		c-5.314,0-9.625,4.309-9.625,9.625c0,5.315,4.311,9.625,9.625,9.625C333.215,34.97,337.523,30.661,337.523,25.345z M327.295,28.463
		l-5.264-5.265c-0.27-0.268-0.27-0.703,0-0.972c0.268-0.269,0.703-0.269,0.973,0l4.895,4.896l4.896-4.896
		c0.268-0.269,0.703-0.269,0.973,0c0.268,0.269,0.268,0.704,0,0.972l-5.264,5.265c-0.166,0.165-0.391,0.216-0.605,0.179
		C327.686,28.679,327.459,28.628,327.295,28.463z"/>
</g>
<g>
	<path fill-rule="evenodd" clip-rule="evenodd" fill="#6DC2E5" d="M371.745,34.323c-0.306-0.036-0.621,0.049-0.854,0.285
		c-0.003,0.003-0.004,0.006-0.006,0.009c-0.195,0.188-0.318,0.451-0.318,0.744c0,0.323,0.155,0.601,0.386,0.791l11.26,10.302
		c0.217,0.22,0.504,0.313,0.788,0.298c0.284,0.015,0.572-0.078,0.789-0.298l11.32-10.358c0.407-0.411,0.407-1.077,0-1.487
		c-0.233-0.236-0.549-0.321-0.854-0.285h-6.097c0-8.601-6.949-15.573-15.523-15.573c-2.198,0-4.287,0.465-6.183,1.292
		c6.466,1.229,11.378,7.419,11.378,14.264C377.477,34.306,371.745,34.323,371.745,34.323z M379.879,36.399h-5.559l8.68,7.942
		l8.68-7.942h-5.591c0,0,0.027-2.592,0.011-3.131c-0.227-7.323-8.539-12.409-12.43-12.442c2.864,2.237,6.227,8.117,6.227,12.442
		C379.896,33.947,379.879,36.399,379.879,36.399z"/>
</g>
<g>
	<path fill="#FB7820" d="M12.963,45.75h15.3c0.469,0,0.85-0.38,0.85-0.85s-0.381-0.85-0.85-0.85h-15.3c-0.47,0-0.85,0.381-0.85,0.85
		S12.494,45.75,12.963,45.75z M28.264,49.15h-15.3c-0.47,0-0.85,0.38-0.85,0.85c0,0.47,0.38,0.85,0.85,0.85h15.3
		c0.469,0,0.85-0.38,0.85-0.85C29.113,49.53,28.732,49.15,28.264,49.15z M28.264,54.25h-15.3c-0.47,0-0.85,0.381-0.85,0.85
		c0,0.47,0.38,0.851,0.85,0.851h15.3c0.469,0,0.85-0.381,0.85-0.851C29.113,54.631,28.732,54.25,28.264,54.25z"/>
</g>
<g>
	<path fill-rule="evenodd" clip-rule="evenodd" fill="#FB7820" d="M57.041,53.425c-0.02,0.168,0.029,0.343,0.164,0.473
		c0.002,0.001,0.004,0.001,0.004,0.003c0.109,0.107,0.258,0.176,0.426,0.176c0.186,0,0.344-0.086,0.453-0.214l5.887-6.224
		c0.125-0.12,0.178-0.279,0.17-0.436c0.008-0.157-0.045-0.316-0.17-0.437l-5.92-6.258c-0.234-0.225-0.615-0.225-0.85,0
		c-0.135,0.129-0.184,0.304-0.164,0.472v3.371c-4.914,0-8.898,3.842-8.898,8.582c0,1.215,0.266,2.37,0.738,3.418
		c0.702-3.574,4.239-6.289,8.15-6.289C57.031,50.257,57.041,53.425,57.041,53.425z M58.228,48.927v3.074l4.537-4.798l-4.537-4.799
		v3.091c0,0-1.481-0.015-1.789-0.006c-4.185,0.126-7.091,4.721-7.11,6.872c1.278-1.583,4.639-3.443,7.11-3.443
		C56.826,48.917,58.228,48.927,58.228,48.927z"/>
</g>
<path fill-rule="evenodd" clip-rule="evenodd" fill="#FFFFFF" d="M14.002,23.741l4.795-5.209l1.816,1.4l1.738-1.409l4.873,5.218
	C27.148,23.759,14.078,23.759,14.002,23.741z M13.176,22.687c0,0.11,0.021,0.214,0.051,0.313l4.73-5.188l-4.781-3.792V22.687z
	 M27.52,12.937l-6.906,5.417l-6.906-5.417H27.52z M28.051,14.02l-4.781,3.792L28,23c0.03-0.1,0.051-0.203,0.051-0.313V14.02z"/>
<path fill-rule="evenodd" clip-rule="evenodd" fill="#FB7820" d="M79.951,53.396l4.795-5.209l1.816,1.4l1.738-1.409l4.873,5.218
	C93.098,53.413,80.027,53.413,79.951,53.396z M79.125,52.341c0,0.11,0.021,0.214,0.051,0.313l4.73-5.188l-4.781-3.792V52.341z
	 M93.469,42.591l-6.906,5.417l-6.906-5.417H93.469z M94,43.674l-4.781,3.792l4.73,5.188c0.03-0.1,0.051-0.203,0.051-0.313V43.674z"
	/>
<path fill-rule="evenodd" clip-rule="evenodd" fill="#B4B4B4" d="M118.034,61.946c0.027,0.029,0.034,0.041,0.043,0.047
	c0.211,0.139,0.203,0.133,0.048,0.356c-0.076,0.109-0.117,0.243-0.168,0.369c-0.058,0.142-0.116,0.282-0.163,0.428
	c-0.043,0.134-0.066,0.272-0.109,0.406c-0.033,0.103-0.087,0.197-0.125,0.298c-0.064,0.171-0.123,0.344-0.182,0.516
	c-0.015,0.044-0.022,0.092-0.034,0.142c-0.056,0.004-0.108,0.007-0.172,0.011c-0.019,0.097-0.038,0.192-0.059,0.298
	c0.089,0.009,0.159,0.015,0.24,0.022c0,0.108,0,0.211,0,0.344c-0.315-0.054-0.616-0.104-0.896-0.152
	c-0.065-0.063-0.125-0.118-0.217-0.206c-0.058,0.218,0.018,0.425-0.219,0.513c0.019-0.16,0.037-0.309,0.057-0.472
	c-0.095,0-0.174,0-0.253,0c-0.063,0.144,0.06,0.342-0.107,0.417c-0.125-0.021-0.219-0.041-0.314-0.053
	c-0.1-0.012-0.194,0.012-0.29-0.079c-0.049-0.046-0.207,0.005-0.308,0.034c-0.076,0.023-0.136,0.096-0.211,0.124
	c-0.127,0.047-0.203,0.104-0.217,0.261c-0.008,0.094-0.105,0.189-0.184,0.264c-0.095,0.09-0.182,0.055-0.289-0.027
	c-0.143-0.107-0.283,0.018-0.305,0.212c-0.12,0.089-0.204,0.177-0.306,0.223c-0.115,0.05-0.247,0.062-0.393,0.095
	c-0.009-0.154-0.016-0.264-0.022-0.371c-0.243-0.068-0.367,0.076-0.373,0.313c-0.004,0.159-0.029,0.282-0.228,0.283
	c-0.034,0-0.069,0.046-0.1,0.075c-0.023,0.022-0.036,0.059-0.062,0.076c-0.074,0.053-0.152,0.098-0.246,0.157
	c-0.063-0.02-0.172-0.054-0.302-0.093c0,0.094,0,0.154,0,0.182c-0.164,0.03-0.314,0.097-0.45,0.072
	c-0.14-0.023-0.212,0.049-0.315,0.09c-0.048,0.018-0.127-0.025-0.185-0.055c-0.044-0.023-0.077-0.068-0.114-0.104
	c-0.019,0.018-0.03,0.023-0.034,0.033c-0.165,0.373-0.239,0.254-0.443,0.064c-0.101-0.094-0.198-0.146-0.337-0.061
	c-0.125,0.077-0.262,0.138-0.4,0.189c-0.086,0.031-0.184,0.033-0.276,0.047c-0.005-0.025-0.01-0.051-0.015-0.076
	c0.095-0.021,0.191-0.037,0.285-0.063c0.088-0.023,0.186-0.037,0.256-0.088c0.054-0.037,0.071-0.127,0.105-0.192
	c-0.056-0.026-0.111-0.054-0.168-0.077c-0.021-0.008-0.045-0.007-0.125-0.018c0.125-0.041,0.198-0.08,0.275-0.088
	c0.301-0.029,0.39-0.122,0.412-0.457c-0.16-0.029-0.308-0.045-0.423,0.115c-0.111,0.154-0.265,0.151-0.43,0.095
	c-0.193-0.065-0.383,0.015-0.464,0.2c-0.051-0.025-0.101-0.051-0.154-0.078c-0.044,0.072-0.089,0.146-0.143,0.232
	c-0.031-0.145,0.094-0.311,0.217-0.34c0.058-0.014,0.124-0.053,0.157-0.101c0.084-0.123,0.173-0.217,0.337-0.218
	c0.235,0,0.312-0.174,0.378-0.359c-0.111-0.133-0.2-0.111-0.299,0.014c-0.044,0.055-0.122,0.092-0.191,0.117
	c-0.059,0.022-0.128,0.018-0.193,0.023c-0.171,0.016-0.341,0.037-0.411-0.186c-0.018-0.055-0.079-0.097-0.125-0.151
	c-0.068,0.063-0.124,0.114-0.185,0.169c-0.023-0.092-0.046-0.18-0.065-0.255c0.086-0.138,0.173-0.275,0.274-0.436
	c0.104,0,0.252,0,0.401,0c0.003,0.015,0.007,0.029,0.01,0.044c0.049-0.061,0.099-0.123,0.16-0.2c0.048,0.07,0.086,0.126,0.14,0.204
	c0.025-0.068,0.037-0.123,0.064-0.168c0.029-0.048,0.065-0.109,0.111-0.124c0.257-0.082,0.259-0.077,0.384-0.365
	c-0.226,0.015-0.432,0.028-0.639,0.042c-0.049,0.002-0.131,0.021-0.144-0.001c-0.085-0.143-0.215-0.096-0.333-0.094
	c-0.143,0.002-0.286,0.022-0.426,0.007c-0.065-0.007-0.123-0.082-0.183-0.126c0.049-0.04,0.091-0.1,0.147-0.118
	c0.166-0.055,0.35-0.152,0.502-0.12c0.138,0.029,0.319-0.063,0.438,0.125c0.114,0.18,0.342,0.149,0.438-0.044
	c0.061-0.126,0.093-0.27,0.113-0.409c0.018-0.124,0.199-0.317,0.383-0.364c0.015-0.067,0.03-0.136,0.045-0.205
	c0.199,0.031,0.389,0.063,0.58,0.091c0.04,0.006,0.099,0.015,0.12-0.007c0.173-0.174,0.391-0.086,0.589-0.115
	c0.084-0.012,0.163-0.064,0.247-0.088c0.071-0.021,0.145-0.035,0.218-0.037c0.24-0.006,0.246-0.006,0.396-0.25
	c-0.274,0.072-0.38-0.124-0.528-0.271c-0.058-0.058-0.182-0.063-0.276-0.063c-0.026,0-0.063,0.099-0.078,0.156
	c-0.036,0.14-0.205,0.291-0.353,0.283c-0.303-0.016-0.606-0.063-0.908-0.055c-0.183,0.004-0.365,0.084-0.522,0.125
	c0.152-0.094,0.236-0.336,0.494-0.348c0.025,0,0.05-0.043,0.072-0.069c0.019-0.022,0.042-0.071,0.05-0.068
	c0.288,0.092,0.298-0.277,0.512-0.308c0.019-0.004,0.05-0.034,0.047-0.045c-0.047-0.203,0.125-0.251,0.257-0.345
	c-0.144-0.036-0.27-0.067-0.396-0.101c0.002-0.017,0.004-0.033,0.005-0.051c0.058-0.038,0.112-0.086,0.174-0.112
	c0.164-0.067,0.225-0.173,0.215-0.355c-0.004-0.087,0.09-0.18,0.14-0.27c0.006,0.019,0.013,0.038,0.019,0.056
	c0.241,0.024,0.482,0.049,0.743,0.074c0-0.121,0-0.221,0-0.319c0-0.095,0-0.188,0-0.33c-0.563,0.171-1.111,0.147-1.658,0.153
	c-0.002-0.021-0.003-0.043-0.005-0.064c0.077-0.006,0.153-0.012,0.26-0.02c-0.078-0.235,0.147-0.529-0.216-0.725
	c-0.052,0.156-0.1,0.299-0.147,0.441c-0.023,0.002-0.045,0.004-0.068,0.006c-0.051-0.171-0.103-0.342-0.165-0.545
	c-0.045,0.01-0.124,0.041-0.204,0.045c-0.14,0.006-0.281,0.001-0.42-0.014c-0.025-0.003-0.043-0.077-0.064-0.118
	c0.042,0.013,0.086,0.024,0.128,0.038c0.014,0.006,0.024,0.018,0.062,0.045c0.035-0.113,0.106-0.224,0.082-0.305
	c-0.025-0.084-0.144-0.141-0.247-0.23c0.176-0.008,0.325-0.129,0.467,0.08c0.008-0.129,0.013-0.221,0.018-0.303
	c0.114,0.025,0.225,0.049,0.352,0.076c0.012-0.139,0.065-0.244-0.061-0.332c-0.03-0.021-0.043-0.122-0.02-0.152
	c0.038-0.048,0.12-0.104,0.169-0.092c0.232,0.053,0.416-0.096,0.62-0.145c0.138-0.031,0.189-0.215,0.149-0.4
	c-0.244-0.039-0.499-0.08-0.781-0.127c0.008-0.068-0.004-0.146,0.028-0.196c0.163-0.263,0.132-0.354-0.157-0.423
	c-0.017-0.004-0.034-0.008-0.023-0.006c0.077-0.15,0.157-0.307,0.253-0.494c-0.195-0.009-0.33-0.015-0.481-0.021
	c0-0.084-0.016-0.158,0.005-0.222c0.015-0.046,0.073-0.093,0.121-0.107c0.039-0.012,0.108,0.011,0.136,0.042
	c0.066,0.078,0.104,0.164,0.241,0.109c0.132-0.053,0.082-0.151,0.096-0.236c0.003-0.018,0.007-0.033,0.011-0.051
	c0.304,0.246,0.688,0.206,1.036,0.29c0.119,0.028,0.168,0.052,0.189,0.193c0.02,0.143,0.133,0.272,0.219,0.431
	c0.082-0.135,0.141-0.229,0.195-0.324c0.062-0.109,0.23-0.177,0.3-0.088c0.152,0.193,0.357,0.181,0.557,0.192
	c0.048,0.189,0.048,0.189,0.271,0.204c0.012-0.107,0.009-0.203,0.124-0.292c0.065-0.05,0.012-0.254,0.012-0.397
	c-0.136-0.009-0.265-0.017-0.394-0.024c0-0.015,0-0.028,0-0.043c0.036-0.009,0.073-0.03,0.106-0.025
	c0.163,0.022,0.289-0.024,0.382-0.165c0.021-0.031,0.067-0.065,0.101-0.064c0.303,0.014,0.409-0.271,0.611-0.405
	c0.034-0.023,0.047-0.143,0.021-0.174c-0.043-0.049-0.129-0.083-0.195-0.08c-0.085,0.002-0.169,0.048-0.245,0.029
	c-0.095-0.029-0.189-0.084-0.284-0.084c-0.178,0.002-0.33-0.024-0.458-0.166c-0.154-0.17-0.125-0.334,0.094-0.403
	c0.084-0.026,0.176-0.028,0.261-0.052c0.06-0.018,0.117-0.047,0.17-0.08c0.087-0.054,0.17-0.114,0.255-0.172
	c0.019,0.01,0.038,0.021,0.057,0.031c-0.012-0.131-0.025-0.263-0.035-0.395c-0.023-0.322-0.031-0.395,0.292-0.451
	c0.004-0.02,0.012-0.041,0.013-0.064c0.009-0.356,0.009-0.354,0.377-0.356c0.103-0.001,0.205-0.014,0.299-0.021
	c0.047,0.051,0.099,0.146,0.177,0.18c0.164,0.073,0.284-0.009,0.28-0.193c-0.002-0.121,0.038-0.135,0.14-0.142
	c0.078-0.005,0.153-0.054,0.271-0.099c-0.033,0.088-0.059,0.16-0.085,0.23c0.064,0.047,0.186,0.088,0.203,0.156
	c0.022,0.088-0.034,0.197-0.065,0.296c-0.012,0.037-0.044,0.069-0.073,0.099c-0.194,0.199-0.139,0.436-0.096,0.667
	c0.029,0.153,0.07,0.306,0.104,0.453c-0.179,0.055-0.325,0.101-0.471,0.144c-0.021,0.006-0.054,0.012-0.068,0
	c-0.177-0.136-0.292,0-0.419,0.09c0.085,0.235,0.196,0.444,0.486,0.49c-0.223,0.078-0.407,0.297-0.65,0.084
	c-0.075,0.133-0.089,0.302-0.31,0.286c-0.122-0.01-0.181,0.225-0.086,0.323c0.174,0.181,0.363,0.345,0.537,0.525
	c0.051,0.054,0.099,0.139,0.097,0.208c-0.003,0.131,0.062,0.166,0.166,0.21c0.123,0.052,0.312,0.028,0.317,0.247
	c0.27,0,0.53,0.006,0.791-0.003c0.19-0.007,0.354-0.201,0.34-0.382c-0.021-0.287-0.01-0.307,0.34-0.57
	c0.215,0.175,0.341,0.383,0.301,0.679c-0.025,0.187,0.153,0.212,0.273,0.233c0.141,0.025,0.174,0.08,0.162,0.213
	c-0.033,0.357,0.013,0.401,0.377,0.396c0.03,0,0.061,0.003,0.089-0.004c0.259-0.063,0.463,0.024,0.627,0.233
	c-0.161,0.071-0.291,0.029-0.387-0.115c-0.266,0.182-0.279,0.373-0.059,0.573c0.045,0.041,0.08,0.116,0.081,0.177
	c0.005,0.171-0.002,0.344-0.02,0.515c-0.017,0.168-0.004,0.32,0.149,0.42c0.164,0.107,0.165,0.258,0.125,0.423
	c-0.25,0.087-0.259,0.147-0.059,0.345c0.043,0.042,0.073,0.097,0.125,0.168c-0.074,0.006-0.118-0.001-0.152,0.015
	c-0.063,0.028-0.146,0.058-0.172,0.11c-0.023,0.047-0.004,0.146,0.035,0.188c0.101,0.108,0.198,0.203,0.13,0.369
	c-0.008,0.021,0.032,0.068,0.059,0.096c0.186,0.191,0.186,0.236-0.004,0.43C118.118,61.841,118.08,61.893,118.034,61.946z"/>
<path fill-rule="evenodd" clip-rule="evenodd" fill="#B4B4B4" d="M119.06,47.773c0.086-0.142,0.199-0.223,0.377-0.189
	c0.113,0.021,0.166-0.039,0.163-0.151c-0.003-0.133-0.103-0.082-0.17-0.085c-0.222-0.013-0.445-0.013-0.664-0.042
	c-0.05-0.006-0.089-0.107-0.117-0.188c0.206-0.02,0.39-0.178,0.583,0.018c0.101,0.102,0.303,0.047,0.403-0.068
	c0.03-0.034,0.073-0.055,0.132-0.098c-0.102-0.042-0.166-0.068-0.261-0.108c0.104-0.01,0.178-0.018,0.253-0.025
	c-0.039-0.248-0.084-0.301-0.297-0.311c-0.107-0.005-0.146-0.047-0.105-0.144c0.059-0.143,0.096-0.319,0.316-0.252
	c0.022-0.094,0.039-0.18,0.064-0.262c0.048-0.161,0.173-0.133,0.27-0.079c0.366,0.205,0.364,0.209,0.572-0.158
	c-0.064-0.008-0.118-0.02-0.173-0.022c-0.16-0.005-0.311-0.009-0.451-0.121c-0.111-0.089-0.241-0.101-0.351,0.052
	c-0.102,0.143-0.237,0.262-0.36,0.389c-0.033,0.033-0.075,0.056-0.13,0.067c0.03-0.238,0.139-0.414,0.388-0.495
	c-0.147-0.132-0.271-0.244-0.395-0.355c0.012-0.014,0.023-0.027,0.035-0.041c0.285,0.066,0.569,0.132,0.868,0.201
	c0.004-0.137,0.096-0.3-0.14-0.376c0.08-0.049,0.139-0.102,0.209-0.125c0.173-0.059,0.116-0.192,0.063-0.27
	c-0.031-0.046-0.174-0.055-0.245-0.026c-0.092,0.038-0.163,0.129-0.242,0.197c-0.167-0.146-0.017-0.244,0.04-0.348
	c-0.047-0.143-0.301-0.218-0.156-0.399c0.084-0.106,0.24-0.155,0.38-0.24c-0.06-0.05-0.144-0.121-0.226-0.19
	c0.041-0.225,0.213-0.099,0.342-0.132c-0.005-0.081-0.01-0.161-0.016-0.265c-0.224,0.038-0.326-0.072-0.362-0.281
	c-0.026-0.146,0.042-0.188,0.161-0.215c0.071-0.016,0.139-0.046,0.206-0.076c0.066-0.03,0.13-0.066,0.195-0.101
	c0.025,0.066,0.05,0.132,0.083,0.22c0.056,0.01,0.135,0.023,0.22,0.039c0.017-0.064,0.03-0.115,0.05-0.192
	c0.086,0,0.179,0.002,0.272-0.001c0.093-0.003,0.187-0.013,0.297-0.021c-0.183-0.254-0.501-0.371-0.596-0.72
	c0.09,0.027,0.158,0.047,0.228,0.068c0.165-0.162,0.169-0.225,0.043-0.421c-0.04-0.062-0.067-0.132-0.103-0.204
	c0.24-0.012,0.455-0.022,0.687-0.034c-0.008-0.116,0.075-0.29-0.183-0.3c-0.049-0.002-0.096-0.073-0.135-0.106
	c0.131-0.244,0.286-0.091,0.439-0.064c-0.051-0.082-0.095-0.152-0.148-0.236c0.055-0.009,0.098-0.016,0.168-0.027
	c-0.092-0.131-0.174-0.248-0.284-0.404c0.081-0.095,0.194-0.234,0.315-0.365c0.019-0.02,0.082-0.016,0.115-0.001
	c0.157,0.067,0.315,0.134,0.464,0.217c0.102,0.057,0.18,0.075,0.264-0.023c0.078-0.091,0.156-0.088,0.194,0.035
	c0.036,0.114,0.104,0.144,0.214,0.123c0.212-0.039,0.458,0.056,0.626-0.16c0.008-0.01,0.048-0.006,0.065,0.005
	c0.16,0.099,0.307,0.017,0.461-0.022c0.172-0.043,0.349-0.069,0.523-0.094c0.168-0.024,0.354-0.016,0.333-0.246
	c0.233,0.033,0.444,0.063,0.705,0.1c-0.024,0.084-0.033,0.202-0.089,0.291c-0.095,0.15-0.115,0.282,0.009,0.418
	c0.068,0.075,0.072,0.143-0.002,0.215c-0.024,0.024-0.053,0.057-0.058,0.088c-0.043,0.311-0.29,0.381-0.531,0.465
	c-0.057,0.02-0.137,0.058-0.149,0.104c-0.063,0.214-0.255,0.301-0.396,0.436c-0.095,0.09-0.24,0.133-0.248,0.3
	c-0.002,0.028-0.077,0.047-0.11,0.079c-0.059,0.059-0.111,0.125-0.138,0.217c-0.089,0.028-0.229,0.031-0.255,0.088
	c-0.074,0.157-0.1,0.336-0.146,0.519c0.149,0.04,0.273,0.073,0.397,0.106c-0.342,0.495-0.633,1.041-1.269,1.246
	c0.372,0.068,0.566,0.033,0.791-0.167c0.104-0.092,0.205-0.138,0.333-0.113c0.197,0.038,0.319-0.055,0.423-0.207
	c0.028-0.042,0.095-0.097,0.134-0.089c0.175,0.034,0.29-0.073,0.414-0.156c0.258-0.171,0.367-0.153,0.54,0.101
	c0.04,0.058,0.076,0.118,0.092,0.143c0.171-0.059,0.337-0.092,0.477-0.171c0.114-0.064,0.215-0.114,0.35-0.102
	c0.12,0.01,0.234,0.006,0.313,0.122c0.02,0.028,0.07,0.046,0.107,0.048c0.166,0.005,0.361,0.058,0.491-0.011
	c0.186-0.099,0.365-0.038,0.543-0.071c0.079-0.015,0.168,0.02,0.251,0.037c0.262,0.052,0.302,0.282,0.349,0.479
	c0.054,0.229,0.09,0.482-0.126,0.66c-0.113,0.094-0.258,0.15-0.419,0.24c0.003,0.028,0.004,0.098,0.016,0.166
	c0.021,0.127,0.032,0.245-0.103,0.329c-0.035,0.021-0.049,0.088-0.059,0.138c-0.062,0.295-0.119,0.591-0.177,0.887
	c-0.005,0.023-0.014,0.048-0.009,0.07c0.068,0.35-0.16,0.517-0.409,0.676c-0.041,0.026-0.075,0.086-0.085,0.136
	c-0.021,0.11-0.026,0.224-0.035,0.336c-0.013,0.155-0.07,0.284-0.197,0.381c-0.114,0.088-0.222,0.185-0.334,0.276
	c-0.011,0.009-0.031,0.004-0.047,0.008c-0.221,0.043-0.442,0.083-0.662,0.131c-0.288,0.064-0.572,0.151-0.863,0.2
	c-0.759,0.126-1.521,0.237-2.282,0.354c-0.292,0.045-0.584,0.118-0.877,0.129c-0.343,0.013-0.544,0.205-0.729,0.452
	c-0.12,0.16-0.246,0.316-0.383,0.46c-0.039,0.041-0.125,0.037-0.205,0.057c-0.077,0.147-0.023,0.549,0.086,0.695
	c0.073,0.097,0.117,0.215,0.187,0.348c-0.351,0.076-0.392,0.311-0.426,0.566c-0.038,0.283-0.013,0.591-0.221,0.764
	c0.043,0.148,0.135,0.293,0.095,0.362c-0.115,0.198-0.321,0.229-0.549,0.146c-0.022-0.143-0.05-0.291,0.067-0.424
	c0.026-0.029,0.04-0.073,0.05-0.113c0.069-0.287,0.137-0.574,0.203-0.861c0.031-0.137,0.08-0.256,0.232-0.301
	c0.104-0.029,0.179-0.106,0.125-0.207c-0.031-0.058-0.135-0.08-0.211-0.106c-0.036-0.012-0.082,0.005-0.163,0.013
	c0.122-0.256,0.439-0.388,0.303-0.714c-0.077,0.073-0.154,0.146-0.232,0.22c-0.015-0.011-0.03-0.022-0.045-0.034
	c0.051-0.068,0.089-0.161,0.157-0.199c0.118-0.065,0.181-0.129,0.097-0.269c-0.032,0.009-0.071,0.021-0.11,0.032
	c-0.003-0.013-0.006-0.027-0.009-0.04c0.08-0.022,0.16-0.044,0.215-0.059c0-0.351,0-0.697,0-1.05
	c0.093,0.008,0.171,0.015,0.255,0.022c0.025-0.126,0.079-0.238-0.065-0.324c-0.019-0.011-0.006-0.14,0.029-0.167
	c0.122-0.095,0.202-0.187,0.17-0.36c-0.018-0.099,0.007-0.216,0.141-0.256c0.024-0.007,0.054-0.037,0.06-0.061
	c0.036-0.153,0.152-0.182,0.311-0.187c-0.017-0.184-0.032-0.361-0.052-0.583c-0.127,0.13-0.22,0.233-0.321,0.329
	c-0.132,0.125-0.285,0.23-0.4,0.369c-0.115,0.138-0.194,0.305-0.291,0.462c-0.226-0.207-0.515-0.287-0.805-0.366L119.06,47.773z"/>
<path fill-rule="evenodd" clip-rule="evenodd" fill="#B4B4B4" d="M128.087,57.069c-0.228-0.138-0.351-0.3-0.301-0.561
	c0.033-0.18,0.005-0.339-0.147-0.48c-0.069-0.064-0.067-0.205-0.101-0.312c-0.048-0.15-0.103-0.3-0.147-0.452
	c-0.028-0.095-0.044-0.193-0.065-0.29c-0.078-0.363-0.16-0.727-0.234-1.09c-0.022-0.109-0.018-0.225-0.039-0.335
	c-0.03-0.151-0.075-0.3-0.118-0.468c0.04-0.01,0.115-0.029,0.188-0.047c0.052-0.297,0.08-0.33,0.325-0.381
	c0.057-0.263-0.054-0.632-0.221-0.713c-0.031-0.016-0.081,0.009-0.144,0.018c0.067,0.084,0.114,0.137,0.153,0.193
	c0.178,0.264,0.155,0.344-0.116,0.498c-0.049,0.027-0.108,0.094-0.105,0.14c0.006,0.144-0.078,0.155-0.181,0.154
	c-0.235-0.001-0.376,0.128-0.435,0.341c-0.068,0.243-0.197,0.416-0.436,0.521c-0.09,0.039-0.146,0.156-0.245,0.27
	c-0.118-0.025-0.199,0.098-0.288,0.218c-0.131,0.178-0.279,0.214-0.483,0.123c-0.139-0.062-0.274-0.133-0.367-0.179
	c-0.105,0.082-0.214,0.136-0.276,0.223c-0.06,0.084-0.072,0.203-0.112,0.328c-0.267,0.004-0.486,0.145-0.681,0.361
	c-0.146,0.164-0.394,0.146-0.568,0.008c-0.164-0.13-0.337-0.246-0.422-0.453c-0.021-0.049-0.103-0.074-0.185-0.129
	c-0.025,0.208-0.106,0.35,0.086,0.51c0.092,0.076,0.045,0.318,0.062,0.486c-0.062-0.003-0.146,0.019-0.182-0.014
	c-0.142-0.127-0.266-0.275-0.403-0.408c-0.138-0.135-0.284-0.26-0.435-0.396c-0.048,0.027-0.098,0.055-0.148,0.084
	c-0.251,0.148-0.267,0.203-0.146,0.463c0.062,0.131,0.12,0.264,0.15,0.412c-0.065-0.076-0.18-0.088-0.165-0.254
	c0.01-0.109-0.096-0.258-0.189-0.345c-0.229-0.214-0.277-0.47-0.238-0.758c0.007-0.05,0.017-0.123,0.051-0.144
	c0.252-0.151,0.322-0.43,0.473-0.65c0.045-0.066,0.101-0.127,0.152-0.188c0.007-0.009,0.026-0.015,0.027-0.022
	c0.01-0.188,0.101-0.336,0.186-0.5c0.059-0.113,0.093-0.23,0.207-0.301c0.09-0.056,0.129-0.127,0.124-0.232
	c-0.013-0.252-0.085-0.453-0.315-0.607c-0.149-0.102-0.24-0.287-0.363-0.43c-0.07-0.081-0.096-0.229-0.262-0.185
	c-0.014,0.004-0.056-0.063-0.072-0.104c-0.039-0.097-0.071-0.197-0.111-0.311c-0.103,0.047-0.187,0.086-0.285,0.131
	c-0.09-0.353-0.154-0.676,0.167-0.95c0.134-0.113,0.222-0.278,0.349-0.401c0.071-0.07,0.174-0.132,0.271-0.147
	c0.738-0.114,1.479-0.207,2.216-0.325c0.619-0.099,1.235-0.214,1.85-0.339c0.211-0.042,0.412-0.135,0.629-0.209
	c0.049,0.187,0.047,0.32-0.169,0.391c0.229,0.106,0.426,0.197,0.639,0.296c-0.134,0.189-0.295,0.329-0.51,0.385
	c-0.097,0.025-0.208-0.009-0.313-0.003c-0.203,0.011-0.318,0.145-0.378,0.319c-0.046,0.134-0.144,0.174-0.257,0.209
	c-0.124,0.038-0.249,0.074-0.374,0.109c-0.021,0.006-0.048,0.008-0.066,0c-0.235-0.113-0.469-0.229-0.703-0.344
	c0.005-0.015,0.01-0.03,0.016-0.045c-0.081,0.033-0.161,0.065-0.287,0.116c0.286,0.149,0.398,0.485,0.765,0.479
	c0.169-0.003,0.34,0.05,0.506,0.093c0.398,0.105,0.756,0.065,1.055-0.25c0.107-0.112,0.437-0.14,0.562-0.048
	c0.164,0.121,0.327,0.247,0.469,0.392c0.096,0.098,0.186,0.136,0.32,0.13c0.319-0.014,0.447,0.116,0.456,0.435
	c0.006,0.186,0.118,0.322,0.304,0.385c0.048,0.016,0.119,0.057,0.124,0.093c0.027,0.206,0.187,0.284,0.34,0.343
	c0.108,0.042,0.118,0.088,0.127,0.189c0.015,0.18,0.064,0.357,0.1,0.535c0.006,0.033,0.029,0.072,0.018,0.097
	c-0.13,0.272,0.009,0.501,0.105,0.74c0.02,0.05,0.031,0.128,0.006,0.168c-0.063,0.103-0.03,0.178,0.033,0.253
	c0.105,0.123,0.248,0.227,0.187,0.428c-0.009,0.029,0.071,0.081,0.102,0.128c0.038,0.058,0.097,0.122,0.096,0.181
	c-0.009,0.334,0.095,0.611,0.352,0.831c0.115,0.099,0.108,0.2-0.023,0.239c-0.435,0.134-0.723,0.448-1.004,0.778
	C128.444,56.692,128.261,56.88,128.087,57.069z M127.427,51.594c0.012,0.01,0.022,0.019,0.033,0.027
	c0.076-0.111,0.306-0.117,0.23-0.357C127.595,51.383,127.511,51.488,127.427,51.594z"/>
<path fill-rule="evenodd" clip-rule="evenodd" fill="#B4B4B4" d="M128.896,63.019c-0.131,0.242-0.266,0.482-0.388,0.729
	c-0.021,0.042,0.006,0.115,0.027,0.167c0.106,0.268,0.158,0.533,0.119,0.83c-0.062,0.476-0.105,0.957-0.113,1.436
	c-0.004,0.254,0.09,0.51,0.132,0.766c0.064,0.395,0.229,0.773,0.187,1.188c-0.014,0.13-0.036,0.182-0.182,0.185
	c-0.252,0.007-0.508,0.022-0.71,0.216c-0.03,0.028-0.11,0.016-0.163,0.005c-0.327-0.068-0.652-0.142-0.979-0.214
	c-0.154-0.035-0.31-0.07-0.499-0.113c0.134-0.182,0.211-0.336,0.332-0.439c0.142-0.121,0.075-0.209,0.002-0.324
	c-0.133,0.123-0.265,0.246-0.441,0.41c0-0.203-0.014-0.365,0.004-0.523c0.018-0.164-0.045-0.269-0.172-0.359
	c-0.086-0.061-0.154-0.146-0.24-0.209c-0.052-0.037-0.125-0.077-0.185-0.07c-0.206,0.021-0.326-0.113-0.375-0.26
	c-0.05-0.15-0.099-0.336,0.061-0.488c0.078-0.075,0.069-0.182-0.031-0.254c0.103-0.241,0.309-0.445,0.231-0.762
	c-0.264,0.051-0.438-0.084-0.589-0.324c0.149,0,0.274,0,0.412,0c0.002-0.133,0.037-0.229-0.065-0.341
	c-0.055-0.06-0.034-0.223,0.001-0.321c0.041-0.112,0.135-0.206,0.207-0.307c0.13-0.178,0.121-0.246-0.053-0.369
	c-0.086-0.061-0.173-0.12-0.243-0.169c-0.018-0.274,0.199-0.296,0.357-0.388c0.284-0.164,0.271,0.227,0.485,0.211
	c0.064-0.107,0.235-0.186,0.204-0.4c-0.016-0.101,0.308-0.318,0.423-0.32c0.042,0,0.084,0.006,0.125-0.001
	c0.393-0.065,0.715,0.058,0.974,0.359c0.03,0.036,0.085,0.061,0.133,0.072c0.253,0.062,0.512,0.103,0.76,0.181
	c0.095,0.029,0.165,0.138,0.246,0.21L128.896,63.019z"/>
<path fill-rule="evenodd" clip-rule="evenodd" fill="#B4B4B4" d="M115.28,55.408c-0.152-0.063-0.283-0.103-0.396-0.17
	c-0.103-0.061-0.188-0.152-0.315-0.26c0.357-0.06,0.654-0.107,0.979-0.162c-0.023-0.162-0.039-0.295-0.063-0.426
	c-0.018-0.099-0.049-0.194-0.07-0.293c-0.046-0.219,0.032-0.397,0.158-0.574c0.063-0.088,0.092-0.208,0.107-0.317
	c0.023-0.163,0.022-0.331,0.033-0.542c0.097,0.074,0.141,0.108,0.16,0.123c0.161-0.079,0.302-0.148,0.454-0.222
	c-0.062-0.038-0.124-0.075-0.186-0.114c0.101-0.033,0.177-0.057,0.248,0.07c0.08,0.146,0.202,0.274,0.306,0.402
	c0.142,0.177,0.307,0.277,0.489,0.375c0.056,0.029,0.142,0.043,0.2,0.022c0.209-0.072,0.409-0.171,0.618-0.241
	c0.063-0.021,0.157-0.006,0.216,0.028c0.095,0.056,0.173,0.141,0.271,0.225c0.136-0.218,0.247-0.044,0.362,0.02
	c0.023,0.013,0.031,0.071,0.028,0.106c-0.016,0.158-0.04,0.316-0.057,0.475c-0.003,0.033-0.005,0.083,0.015,0.1
	c0.203,0.176,0.239,0.439,0.362,0.655c0.035,0.062,0.152,0.076,0.245,0.118c0.036,0.102,0.015,0.184-0.109,0.255
	c-0.163,0.094-0.31,0.214-0.458,0.331c-0.067,0.053-0.188,0.09-0.105,0.219c0.076,0.118,0.228,0.151,0.36,0.09
	c0.187-0.087,0.376-0.166,0.589-0.26c0.068,0.225,0.127,0.423,0.196,0.651c-0.248-0.017-0.287-0.23-0.456-0.325
	c-0.048,0.065-0.163,0.169-0.144,0.206c0.053,0.106,0.148,0.205,0.25,0.27c0.091,0.057,0.213,0.063,0.322,0.091
	c0.112,0.421-0.212,0.897-0.925,0.86c-0.111,0.195-0.22,0.375-0.317,0.561c-0.056,0.106-0.137,0.139-0.232,0.082
	c-0.268-0.156-0.558-0.127-0.848-0.119c-0.213,0.007-0.23-0.016-0.219-0.229c0.014-0.264-0.031-0.312-0.295-0.382
	c-0.059-0.016-0.146-0.114-0.138-0.161c0.067-0.376-0.223-0.556-0.418-0.826c-0.175,0.173-0.344,0.324-0.49,0.496
	c-0.037,0.042-0.004,0.148,0.003,0.224c0.018,0.182-0.078,0.306-0.264,0.315c-0.171,0.008-0.344,0.007-0.516-0.002
	c-0.04-0.002-0.076-0.052-0.118-0.072c-0.077-0.04-0.154-0.08-0.234-0.108c-0.127-0.046-0.249-0.087-0.214-0.265
	c0.005-0.024-0.007-0.063-0.025-0.08c-0.14-0.125-0.286-0.244-0.425-0.372c-0.078-0.071-0.15-0.149-0.211-0.235
	c-0.013-0.019,0.038-0.118,0.057-0.117c0.123,0.002,0.226-0.005,0.246-0.159c0.003-0.02,0.044-0.055,0.062-0.051
	c0.282,0.058,0.496-0.109,0.729-0.213C115.146,55.459,115.195,55.441,115.28,55.408z"/>
<path fill-rule="evenodd" clip-rule="evenodd" fill="#B4B4B4" d="M125.642,68.289c-0.043-0.038-0.099-0.087-0.161-0.143
	c-0.236,0.136-0.36,0.372-0.517,0.581c-0.042,0.055-0.12,0.092-0.189,0.115c-0.06,0.02-0.132-0.002-0.194,0.011
	c-0.361,0.078-0.65-0.069-0.889-0.312c-0.115-0.117-0.198-0.282-0.252-0.441c-0.055-0.16-0.129-0.223-0.294-0.185
	c-0.074,0.018-0.152,0.019-0.248,0.03c0.049,0.171-0.076,0.178-0.186,0.203c-0.16,0.037-0.322,0.11-0.473-0.014
	c-0.038-0.031-0.08-0.098-0.071-0.137c0.01-0.042,0.075-0.094,0.121-0.1c0.176-0.018,0.353-0.02,0.537-0.027
	c0-0.084,0-0.156,0-0.248c-0.234,0-0.457,0-0.698,0c0-0.216,0-0.414,0-0.611c-0.016-0.009-0.032-0.018-0.047-0.026
	c-0.121,0.124-0.242,0.247-0.406,0.416c-0.137,0.011-0.349,0.028-0.576,0.046c0.03,0.216-0.104,0.262-0.271,0.279
	c-0.046,0.006-0.091,0.027-0.135,0.043c-0.265,0.097-0.265,0.097-0.425-0.176c0.212-0.015,0.415-0.028,0.639-0.043
	c-0.011-0.107-0.021-0.205-0.032-0.322c-0.128,0.027-0.282-0.094-0.363,0.105c-0.006,0.015-0.038,0.026-0.059,0.027
	c-0.16,0.012-0.319,0.022-0.479,0.026c-0.025,0.001-0.051-0.037-0.113-0.085c0.311-0.021,0.353-0.193,0.333-0.429
	c-0.019-0.226-0.226-0.122-0.314-0.224c-0.047,0.043-0.085,0.077-0.139,0.127c0-0.074,0-0.127,0-0.18
	c0.251-0.086,0.566-0.07,0.618-0.447c0.039,0.021,0.078,0.035,0.105,0.061c0.139,0.133,0.277,0.081,0.401-0.012
	c0.142-0.107,0.264-0.238,0.406-0.346c0.059-0.043,0.147-0.072,0.22-0.069c0.157,0.005,0.289-0.034,0.412-0.13
	c0.058-0.047,0.142-0.112,0.2-0.1c0.268,0.058,0.344-0.149,0.453-0.306c0.182-0.26,0.339-0.53,0.288-0.871
	c-0.006-0.042,0.048-0.131,0.081-0.136c0.247-0.029,0.411-0.189,0.579-0.346c0.025-0.024,0.049-0.063,0.079-0.068
	c0.293-0.054,0.516-0.273,0.815-0.326c0.202-0.035,0.394-0.15,0.58-0.25c0.186-0.1,0.255,0.092,0.381,0.139
	c0.018,0.008,0.006,0.156-0.027,0.223c-0.105,0.203-0.322,0.363-0.235,0.637c0.019,0.061,0.052,0.117,0.086,0.193
	c-0.105,0.008-0.224,0.018-0.338,0.025c-0.086,0.285,0.163,0.562,0.589,0.612c-0.099,0.193-0.185,0.374-0.282,0.548
	c-0.048,0.085-0.092,0.156,0.034,0.204c-0.035,0.045-0.075,0.075-0.088,0.115c-0.084,0.27,0.042,0.664,0.266,0.841
	c0.025,0.021,0.065,0.041,0.094,0.035c0.313-0.057,0.421,0.238,0.625,0.365c0.021,0.014,0.021,0.066,0.021,0.101
	c0.004,0.19,0.015,0.38,0.004,0.569c-0.009,0.148-0.068,0.266-0.246,0.294C125.788,68.166,125.726,68.235,125.642,68.289z"/>
<path fill-rule="evenodd" clip-rule="evenodd" fill="#B4B4B4" d="M125.967,59.403c-0.101-0.008-0.153-0.011-0.207-0.014
	c-0.157-0.011-0.311-0.031-0.379-0.204c-0.065-0.168-0.006-0.45,0.118-0.564c0.02-0.019,0.048-0.032,0.074-0.039
	c0.321-0.074,0.358-0.132,0.271-0.435c0.123-0.147,0.397,0.035,0.459-0.273c0.13,0.161,0.24,0.265,0.305,0.391
	c0.057,0.111,0.124,0.133,0.234,0.135c0.272,0.004,0.545,0.02,0.817,0.029c0.114,0.005,0.209,0.035,0.239,0.164
	c0.008,0.033,0.027,0.071,0.054,0.089c0.148,0.102,0.222,0.235,0.194,0.37c0.158,0.133,0.293,0.24,0.422,0.355
	c0.026,0.023,0.049,0.075,0.043,0.107c-0.074,0.369,0.135,0.637,0.333,0.897c0.174,0.229,0.392,0.423,0.58,0.643
	c0.073,0.085,0.161,0.195,0.165,0.296c0.011,0.352,0.241,0.595,0.391,0.877c0.104,0.195,0.225,0.381,0.347,0.586
	c-0.478,0.023-0.938,0.049-1.398,0.066c-0.043,0.002-0.112-0.025-0.129-0.06c-0.058-0.121-0.157-0.142-0.273-0.163
	c-0.238-0.045-0.484-0.078-0.707-0.166c-0.161-0.064-0.285-0.217-0.434-0.317c-0.072-0.05-0.16-0.089-0.245-0.103
	c-0.116-0.02-0.239,0.006-0.355-0.013c-0.272-0.042-0.489,0.026-0.672,0.247c-0.052,0.063-0.196,0.047-0.332,0.074
	c0.063-0.271-0.071-0.406-0.242-0.511c0.198-0.258,0.096-0.47-0.166-0.522c-0.139-0.205-0.249-0.369-0.375-0.556
	c0.021-0.017,0.059-0.057,0.104-0.081c0.22-0.112,0.213-0.31,0.182-0.505c-0.05-0.317-0.001-0.491,0.369-0.667
	c0.031-0.016,0.063-0.033,0.092-0.053C125.875,59.468,125.901,59.448,125.967,59.403z"/>
<path fill-rule="evenodd" clip-rule="evenodd" fill="#B4B4B4" d="M128.89,63.025c0.492-0.024,0.983-0.051,1.477-0.067
	c0.069-0.002,0.16,0.033,0.208,0.084c0.127,0.131,0.305,0.148,0.441,0.02c0.21-0.199,0.323-0.205,0.544-0.021
	c0.113,0.095,0.214,0.188,0.387,0.179c0.072-0.004,0.151,0.092,0.241,0.152c-0.091,0.087-0.154,0.167-0.236,0.219
	c-0.169,0.11-0.219,0.271-0.26,0.458c-0.151,0.692-0.321,1.38-0.482,2.07c-0.01,0.038-0.02,0.08-0.013,0.117
	c0.073,0.401,0.146,0.802,0.226,1.202c0.023,0.12,0.069,0.236,0.093,0.355c0.01,0.05,0.008,0.124-0.022,0.155
	c-0.13,0.136-0.272,0.259-0.416,0.392c-0.271-0.158-0.579-0.035-0.88-0.023c-0.337,0.012-0.673,0.063-1.01,0.096
	c-0.052,0.005-0.104,0-0.165,0c-0.008-0.047-0.023-0.088-0.021-0.127c0.043-0.652-0.213-1.255-0.316-1.883
	c-0.009-0.059-0.024-0.118-0.02-0.176c0.046-0.55,0.105-1.099,0.14-1.648c0.01-0.165-0.016-0.35-0.086-0.497
	c-0.131-0.274-0.016-0.503,0.074-0.743c0.038-0.105,0.068-0.213,0.103-0.32L128.89,63.025z"/>
<path fill-rule="evenodd" clip-rule="evenodd" fill="#B4B4B4" d="M134.593,67.501c0.173,0,0.308,0,0.455,0c0,0.092,0,0.17,0,0.27
	c-0.18-0.01-0.354-0.018-0.545-0.027c-0.005,0.088-0.01,0.161-0.015,0.243c0.098,0.008,0.179,0.015,0.271,0.022
	c0,0.078,0,0.151,0,0.229c-0.328,0.059-0.604-0.01-0.809-0.275c-0.094-0.123-0.163-0.266-0.26-0.386
	c-0.058-0.071-0.147-0.118-0.25-0.196c0.019-0.178,0.022-0.378,0.123-0.59c0.083-0.175,0.024-0.414,0.037-0.625
	c0.006-0.093,0.001-0.221,0.058-0.271c0.334-0.302,0.287-0.733,0.381-1.111c0.026-0.107-0.115-0.256-0.178-0.387
	c-0.031-0.065-0.073-0.131-0.083-0.199c-0.053-0.345-0.098-0.691-0.145-1.037c-0.004-0.028-0.014-0.063-0.002-0.085
	c0.102-0.209,0.207-0.416,0.314-0.63c0.259,0.07,0.499,0.164,0.73-0.067c0.012,0.112,0.019,0.176,0.026,0.249
	c0.099,0.016,0.195,0.047,0.251-0.083c0.01-0.024,0.041-0.042,0.066-0.056c0.171-0.086,0.792,0.049,0.908,0.199
	c0.02,0.025,0.036,0.068,0.03,0.098c-0.029,0.156,0.046,0.226,0.188,0.221c0.349-0.012,0.479,0.274,0.661,0.482
	c0.092,0.105,0.035,0.338-0.074,0.415c0,0.012-0.004,0.028,0.003,0.034c0.216,0.223,0.084,0.498,0.105,0.748
	c0.004,0.041-0.067,0.098-0.115,0.132c-0.057,0.04-0.125,0.063-0.207,0.104c0.063,0.068,0.118,0.131,0.193,0.214
	c-0.263,0.067-0.124,0.283-0.17,0.448c-0.091,0-0.178,0-0.312,0c0.092,0.098,0.155,0.165,0.233,0.247
	c-0.115,0.111-0.226,0.215-0.333,0.322c-0.023,0.023-0.056,0.061-0.051,0.086c0.044,0.256-0.174,0.339-0.31,0.476
	c-0.045,0.045-0.096,0.084-0.153,0.134c0.066,0.044,0.119,0.078,0.206,0.135c-0.133,0.104-0.25,0.195-0.395,0.309
	c-0.043-0.129-0.066-0.199-0.097-0.291C135.004,67.024,134.787,67.21,134.593,67.501z"/>
<path fill-rule="evenodd" clip-rule="evenodd" fill="#B4B4B4" d="M131.206,59.657c0.205,0.045,0.418,0.107,0.635,0.133
	c0.128,0.016,0.224,0.033,0.29,0.157c0.03,0.055,0.101,0.093,0.16,0.126c0.212,0.113,0.445,0.197,0.634,0.341
	c0.132,0.101,0.24,0.269,0.294,0.429c0.115,0.338,0.243,0.69,0.158,1.051c-0.028,0.123-0.199,0.215-0.305,0.321
	c-0.061,0.062-0.139,0.112-0.177,0.185c-0.062,0.115-0.103,0.232-0.237,0.293c-0.039,0.018-0.047,0.104-0.068,0.155
	c0.164,0.091,0.36-0.039,0.479,0.128c-0.077,0.16-0.187,0.208-0.354,0.206c-0.139-0.001-0.278,0.065-0.442,0.108
	c-0.1-0.092-0.212-0.217-0.417-0.215c-0.095,0-0.192-0.121-0.285-0.192c-0.158-0.122-0.445-0.112-0.588,0.03
	c-0.178,0.179-0.247,0.147-0.376-0.061c-0.213-0.346-0.418-0.697-0.617-1.051c-0.062-0.109-0.108-0.232-0.137-0.354
	c-0.049-0.21-0.106-0.399-0.285-0.55c-0.3-0.252-0.559-0.545-0.735-0.9c-0.012-0.024-0.039-0.041-0.063-0.065
	c0.082-0.135,0.188-0.213,0.359-0.191c0.048,0.006,0.13-0.025,0.148-0.063c0.085-0.171,0.243-0.211,0.402-0.262
	c0.269-0.086,0.531-0.197,0.806-0.264c0.238-0.059,0.374-0.231,0.537-0.381c0.04-0.037,0.101-0.092,0.14-0.083
	c0.197,0.042,0.293-0.087,0.38-0.216c0.11-0.166,0.285-0.195,0.452-0.24c0.028-0.007,0.101,0.059,0.111,0.1
	c0.067,0.281,0.183,0.535,0.394,0.738c0.021,0.02,0.035,0.049,0.046,0.076c0.069,0.188,0.138,0.377,0.203,0.557
	c-0.039,0.02-0.111,0.051-0.179,0.092c-0.142,0.086-0.213-0.039-0.247-0.115c-0.058-0.133-0.146-0.144-0.264-0.15
	c-0.219-0.014-0.437-0.038-0.652-0.068C131.278,59.442,131.214,59.483,131.206,59.657z"/>
<path fill-rule="evenodd" clip-rule="evenodd" fill="#B4B4B4" d="M125.899,54.23c-0.019-0.227,0.115-0.332,0.277-0.399
	c0.191-0.081,0.242-0.257,0.319-0.418c0.054-0.112,0.112-0.224,0.175-0.347c0.156,0.123,0.219,0.242,0.245,0.406
	c0.066,0.412,0.199,0.818,0.23,1.232c0.035,0.463,0.291,0.86,0.322,1.317c0.002,0.027,0.017,0.064,0.037,0.078
	c0.193,0.119,0.184,0.303,0.149,0.487c-0.036,0.196,0.024,0.344,0.188,0.452c0.152,0.102,0.209,0.239,0.182,0.424
	c-0.035,0.238-0.043,0.48-0.088,0.717c-0.011,0.055-0.123,0.128-0.188,0.127c-0.277-0.001-0.556-0.021-0.833-0.049
	c-0.074-0.008-0.158-0.057-0.212-0.111c-0.13-0.133-0.244-0.281-0.379-0.44c-0.076,0.084-0.146,0.161-0.23,0.254
	c-0.062-0.268,0.05-0.466,0.193-0.653c-0.014-0.016-0.027-0.031-0.041-0.047c-0.138,0.097-0.305,0.17-0.404,0.297
	c-0.112,0.143-0.179,0.178-0.299,0c-0.111,0.189-0.213,0.364-0.313,0.535c-0.169-0.313-0.333-0.625-0.507-0.932
	c-0.115-0.203-0.245-0.399-0.371-0.598c-0.06-0.093-0.131-0.18-0.188-0.273c-0.016-0.024-0.009-0.068-0.001-0.102
	c0.028-0.121,0.052-0.245,0.097-0.361c0.043-0.112,0.091-0.233,0.171-0.319c0.141-0.152,0.211-0.326,0.229-0.525
	c0.011-0.111,0.073-0.163,0.159-0.229c0.159-0.123,0.316-0.192,0.522-0.177c0.05,0.003,0.125-0.087,0.157-0.15
	C125.579,54.271,125.69,54.191,125.899,54.23z"/>
<path fill-rule="evenodd" clip-rule="evenodd" fill="#B4B4B4" d="M119.016,73.755c0.058-0.084,0.13-0.162,0.17-0.254
	c0.047-0.109,0.106-0.168,0.232-0.169c0.049-0.001,0.129-0.059,0.139-0.103c0.038-0.164,0.122-0.252,0.318-0.236
	c-0.042-0.203,0.052-0.314,0.226-0.386c0.037-0.016,0.059-0.104,0.062-0.161c0.019-0.318,0.141-0.438,0.47-0.443
	c0.076-0.001,0.152,0,0.235,0c0.006-0.08,0.011-0.143,0.015-0.199c0.526-0.377,0.576-0.959,0.668-1.566
	c0.087,0.044,0.145,0.076,0.206,0.103c0.095,0.041,0.191,0.079,0.288,0.116c0.163,0.063,0.157-0.09,0.215-0.165
	c0.025-0.03,0.069-0.061,0.106-0.064c0.088-0.009,0.177-0.003,0.273-0.003c0.018-0.051,0.036-0.094,0.047-0.138
	c0.01-0.045,0.012-0.092,0.021-0.157c-0.073-0.004-0.137-0.01-0.199-0.011c-0.058-0.002-0.116-0.001-0.171-0.001
	c-0.048-0.299,0.002-0.361,0.276-0.361c0.194,0,0.39,0,0.604,0c-0.043,0.249,0.158,0.367,0.305,0.526
	c0.203,0.22,0.397,0.45,0.575,0.689c0.263,0.353,0.577,0.584,1.039,0.571c0.106-0.003,0.225,0.025,0.317,0.076
	c0.136,0.076,0.123,0.193-0.025,0.233c-0.133,0.037-0.279,0.048-0.418,0.037c-0.188-0.015-0.328,0.052-0.46,0.177
	c-0.196,0.188-0.246,0.173-0.29-0.083c-0.028-0.159-0.124-0.099-0.211-0.099c0.036,0.488,0.036,0.488-0.238,0.521
	c-0.002,0.092-0.082,0.205,0.091,0.245c0.015,0.003,0.023,0.11,0.016,0.113c-0.18,0.063-0.114,0.224-0.156,0.361
	c0.063-0.004,0.111-0.007,0.165-0.011c0,0.02,0.006,0.039-0.001,0.051c-0.118,0.195-0.239,0.391-0.356,0.586
	c-0.047,0.079-0.322,0.094-0.42,0.03c-0.14-0.092-0.188-0.197-0.09-0.35c0.03-0.046,0.045-0.104,0.037-0.184
	c-0.098,0.055-0.195,0.109-0.293,0.163c0.006-0.016,0.01-0.031,0.016-0.047c-0.284-0.155-0.568-0.312-0.888-0.487
	c0.016,0.114,0.026,0.191,0.041,0.295c-0.064-0.015-0.117-0.04-0.169-0.038c-0.071,0.004-0.163,0.005-0.205,0.047
	c-0.108,0.109-0.234,0.095-0.346,0.057c-0.328-0.109-0.501-0.033-0.59,0.256c-0.107,0.072-0.187,0.135-0.275,0.182
	c-0.083,0.043-0.176,0.1-0.263,0.096c-0.203-0.008-0.198,0.178-0.289,0.271c0.149,0.217,0.145,0.24-0.059,0.418
	c-0.03,0.025-0.042,0.07-0.07,0.1c-0.033,0.034-0.075,0.061-0.112,0.09c-0.022-0.037-0.065-0.075-0.064-0.111
	c0.009-0.238-0.146-0.391-0.28-0.57c-0.055,0.04-0.105,0.076-0.174,0.127c-0.02-0.053-0.037-0.099-0.053-0.145L119.016,73.755z"/>
<path fill-rule="evenodd" clip-rule="evenodd" fill="#B4B4B4" d="M128.722,59.728c0.092-0.387-0.122-0.563-0.396-0.704
	c-0.02-0.011-0.043-0.051-0.038-0.069c0.042-0.157-0.073-0.219-0.166-0.302c-0.109-0.099-0.195-0.185-0.081-0.37
	c0.089-0.143,0.092-0.351,0.099-0.531c0.022-0.569,0.018-0.568,0.402-0.973c0.211-0.223,0.397-0.474,0.632-0.666
	c0.176-0.146,0.406-0.232,0.623-0.315c0.054-0.021,0.151,0.071,0.229,0.11c0.047,0.024,0.099,0.072,0.142,0.065
	c0.226-0.038,0.372,0.106,0.539,0.211c0.084,0.054,0.182,0.085,0.264,0.142c0.067,0.049,0.137,0.109,0.176,0.181
	c0.058,0.101,0.105,0.188,0.206,0.268c0.102,0.079,0.124,0.258,0.186,0.39c0.028,0.061,0.055,0.14,0.106,0.17
	c0.143,0.084,0.243,0.18,0.21,0.332c0.154,0.068,0.289,0.129,0.473,0.211c-0.168,0.097-0.283,0.203-0.417,0.232
	c-0.23,0.051-0.395,0.169-0.53,0.352c-0.031,0.042-0.1,0.095-0.138,0.086c-0.172-0.04-0.279,0.055-0.357,0.17
	c-0.15,0.224-0.386,0.303-0.614,0.389c-0.288,0.106-0.584,0.189-0.876,0.283c-0.018,0.005-0.047,0-0.051,0.01
	C129.222,59.64,128.945,59.583,128.722,59.728z"/>
<path fill-rule="evenodd" clip-rule="evenodd" fill="#B4B4B4" d="M123.354,69.485c0.158,0.034,0.307,0.098,0.451,0.09
	c0.146-0.008,0.263,0.004,0.38,0.099c0.187,0.149,0.407,0.065,0.615,0.066c0.017,0,0.034-0.012,0.052-0.013
	c0.291-0.01,0.471-0.104,0.471-0.451c0-0.141,0.075-0.343,0.287-0.385c0.014-0.002,0.03-0.022,0.035-0.037
	c0.09-0.324,0.422-0.35,0.639-0.518c0.021-0.017,0.073,0.002,0.109,0.01c0.134,0.033,0.267,0.072,0.4,0.104
	c0.299,0.07,0.598,0.135,0.895,0.211c0.034,0.01,0.081,0.087,0.073,0.12c-0.052,0.211-0.105,0.423-0.183,0.626
	c-0.07,0.187-0.169,0.362-0.259,0.54c-0.096,0.188-0.075,0.309,0.102,0.42c0.127,0.079,0.207,0.175,0.197,0.329
	c-0.02,0.313,0.211,0.469,0.399,0.654c0.071,0.068,0.137,0.144,0.238,0.25c-0.29,0-0.517,0-0.761,0
	c0.136,0.096,0.267,0.183,0.391,0.279c0.036,0.027,0.078,0.09,0.069,0.125c-0.009,0.034-0.08,0.078-0.12,0.075
	c-0.305-0.021-0.609-0.049-0.913-0.084c-0.089-0.011-0.175-0.054-0.258-0.08c-0.086,0.172,0.183,0.335-0.036,0.511
	c-0.011-0.055-0.02-0.082-0.021-0.107c-0.018-0.295-0.128-0.422-0.426-0.489c-0.026-0.007-0.052-0.023-0.076-0.038
	c-0.128-0.078-0.256-0.156-0.418-0.256c-0.021-0.16-0.181-0.328-0.39-0.314c-0.515,0.033-0.871-0.201-1.159-0.607
	c-0.182-0.256-0.393-0.496-0.618-0.716C123.397,69.778,123.34,69.662,123.354,69.485z"/>
<path fill-rule="evenodd" clip-rule="evenodd" fill="#B4B4B4" d="M129.492,71.077c0.021,0.336-0.195,0.314-0.396,0.33
	c-0.05,0.004-0.094,0.067-0.143,0.101c-0.052,0.035-0.109,0.101-0.158,0.095c-0.194-0.025-0.389-0.063-0.537-0.211
	c-0.054-0.055-0.108-0.108-0.168-0.157c-0.197-0.163-0.346-0.349-0.339-0.627c0.005-0.169-0.088-0.287-0.237-0.363
	c-0.116-0.06-0.148-0.136-0.064-0.257c0.185-0.266,0.285-0.563,0.344-0.883c0.085-0.457,0.563-0.807,1.012-0.643
	c0.425,0.156,0.798-0.006,1.193-0.002c0.255,0.002,0.509-0.035,0.764-0.049c0.172-0.008,0.293,0.1,0.331,0.273
	c0.008,0.037,0.021,0.087,0.05,0.105c0.162,0.109,0.121,0.267,0.079,0.401c-0.166,0.534-0.349,1.064-0.523,1.597
	c-0.056,0.169-0.138,0.295-0.344,0.304c-0.052,0.003-0.124,0.076-0.146,0.133c-0.063,0.161-0.193,0.214-0.338,0.116
	C129.758,71.265,129.647,71.187,129.492,71.077z"/>
<path fill-rule="evenodd" clip-rule="evenodd" fill="#B4B4B4" d="M133.309,67.499c0.157,0.095,0.281,0.17,0.431,0.261
	c-0.682,0.034-1.317,0.071-1.953,0.095c-0.157,0.006-0.192-0.148-0.213-0.264c-0.061-0.345-0.072-0.7-0.161-1.036
	c-0.138-0.522,0.081-0.988,0.173-1.474c0.073-0.39,0.174-0.773,0.264-1.16c0.01-0.039,0.02-0.088,0.048-0.11
	c0.198-0.157,0.4-0.311,0.605-0.459c0.04-0.028,0.102-0.044,0.151-0.04c0.183,0.014,0.334-0.013,0.478-0.155
	c0.123-0.123,0.382-0.013,0.409,0.161c0.048,0.299,0.106,0.6,0.109,0.898c0.002,0.176,0.118,0.26,0.183,0.381
	c0.063,0.118,0.106,0.22,0.045,0.35c-0.024,0.053-0.036,0.115-0.035,0.174c0.006,0.318-0.168,0.55-0.357,0.779
	c-0.036,0.044-0.039,0.125-0.036,0.189c0.007,0.182,0.025,0.363,0.038,0.545c0.002,0.023,0.002,0.059-0.012,0.068
	C133.191,66.937,133.355,67.253,133.309,67.499z"/>
<path fill-rule="evenodd" clip-rule="evenodd" fill="#B4B4B4" d="M130.868,71.335c-0.008,0.104-0.013,0.156-0.021,0.252
	c-0.131-0.145-0.239-0.263-0.355-0.391c0.277-0.057,0.295-0.296,0.363-0.488c0.181-0.512,0.349-1.027,0.507-1.494
	c0.066,0.137,0.144,0.313,0.238,0.479c0.024,0.043,0.103,0.08,0.155,0.08c0.944,0,1.889-0.004,2.832-0.01
	c0.167,0,0.303-0.143,0.285-0.326c-0.018-0.182,0.077-0.303,0.174-0.43c0.011-0.014,0.028-0.038,0.035-0.035
	c0.227,0.073,0.385-0.14,0.597-0.139c0.212,0.002,0.424-0.02,0.636-0.031c0.016,0.017,0.031,0.032,0.047,0.049
	c-0.042,0.074-0.089,0.148-0.126,0.227c-0.024,0.049-0.051,0.107-0.047,0.159c0.01,0.157,0.035,0.314,0.05,0.472
	c0.003,0.031-0.007,0.084-0.027,0.096c-0.187,0.109-0.326,0.285-0.586,0.289c-0.161,0.002-0.321,0.146-0.478,0.236
	c-0.018,0.01-0.013,0.076-0.003,0.111c0.023,0.084,0.056,0.165,0.09,0.264c-0.191-0.02-0.367-0.037-0.541-0.055
	c-0.093,0.289-0.345,0.461-0.658,0.445c-0.136-0.006-0.236-0.007-0.33,0.141c-0.195,0.307-0.326,0.303-0.711,0.111
	c-0.142-0.071-0.313-0.127-0.467-0.121C131.978,71.245,131.43,71.296,130.868,71.335z"/>
<path fill-rule="evenodd" clip-rule="evenodd" fill="#B4B4B4" d="M122.8,62.627c-0.229,0-0.435-0.003-0.642,0.001
	c-0.104,0.003-0.303,0.232-0.323,0.359c-0.006,0.035-0.014,0.068-0.022,0.102c0,0.004-0.01,0.006-0.042,0.02
	c-0.031-0.073-0.062-0.147-0.093-0.221c-0.129,0.033-0.257,0.066-0.406,0.104c0.14-0.171,0.251-0.326,0.384-0.46
	c0.043-0.043,0.142-0.029,0.232-0.045c0.038-0.15,0.117-0.277,0.325-0.248c0.013-0.043,0.036-0.082,0.034-0.119
	c-0.02-0.376,0.312-0.494,0.516-0.703c0.029-0.029,0.101-0.021,0.152-0.023c0.223-0.006,0.461-0.177,0.549-0.427
	c0.086,0.028,0.172,0.056,0.259,0.086c0.231,0.079,0.459,0.162,0.688-0.016c0.122-0.095,0.384-0.065,0.505,0.05
	c0.118,0.113,0.228,0.237,0.348,0.349c0.038,0.034,0.1,0.044,0.149,0.063c0.057,0.023,0.13,0.031,0.164,0.072
	c0.02,0.025-0.03,0.1-0.032,0.152c-0.002,0.078-0.019,0.189,0.024,0.229c0.129,0.117,0.226,0.231,0.199,0.422
	c-0.004,0.032,0.065,0.092,0.113,0.11c0.051,0.021,0.115,0.011,0.228,0.017c-0.055,0.092-0.094,0.157-0.138,0.232
	c-0.071-0.063-0.117-0.108-0.168-0.148c-0.103-0.08-0.205-0.098-0.313-0.002c-0.032,0.029-0.079,0.053-0.123,0.059
	c-0.153,0.022-0.239,0.119-0.283,0.255c-0.049,0.151-0.126,0.256-0.289,0.306c-0.291,0.089-0.577,0.197-0.865,0.297
	c-0.017,0.006-0.036,0.008-0.05,0.018c-0.213,0.143-0.425,0.288-0.639,0.43c-0.063,0.043-0.132,0.076-0.197,0.115
	c-0.102,0.059-0.202,0.033-0.24-0.063c-0.028-0.074-0.021-0.192,0.021-0.256c0.063-0.094,0.175-0.154,0.261-0.236
	c0.032-0.031,0.076-0.104,0.064-0.119c-0.04-0.049-0.1-0.111-0.156-0.117c-0.264-0.021-0.288-0.05-0.219-0.315
	c0.01-0.04,0.012-0.082,0.016-0.123C122.794,62.779,122.795,62.727,122.8,62.627z"/>
<path fill-rule="evenodd" clip-rule="evenodd" fill="#B4B4B4" d="M133.993,68.211c-0.063,0.091-0.124,0.182-0.206,0.301
	c0.219,0,0.413,0,0.608,0c0.004,0.017,0.009,0.032,0.013,0.048c-0.138,0.078-0.275,0.156-0.412,0.234
	c0.099,0.184,0.64,0.162,0.8-0.023c0.05,0.021,0.102,0.046,0.175,0.078c-0.035,0.063-0.058,0.123-0.096,0.17
	c-0.092,0.117-0.146,0.236-0.13,0.393c0.016,0.146-0.065,0.232-0.22,0.233c-0.903,0.003-1.806,0.005-2.708,0.007
	c-0.102,0-0.276-0.253-0.29-0.414c-0.004-0.041-0.005-0.084,0.001-0.125c0.021-0.147-0.023-0.248-0.158-0.337
	c-0.217-0.142-0.192-0.285-0.041-0.483c0.221-0.287,0.502-0.318,0.827-0.318c0.342,0,0.685-0.039,1.024-0.084
	C133.514,67.845,133.79,67.908,133.993,68.211z"/>
<path fill-rule="evenodd" clip-rule="evenodd" fill="#B4B4B4" d="M117.076,42.865c0.114-0.132,0.171-0.275,0.376-0.273
	c0.091,0,0.184-0.135,0.32-0.245c-0.181-0.124-0.32-0.22-0.473-0.325c0.068-0.046,0.155-0.104,0.247-0.166
	c-0.101-0.204-0.438-0.268-0.312-0.581c0.213-0.084,0.229-0.073,0.285,0.232c0.246,0.008,0.384-0.111,0.498-0.428
	c-0.136-0.094-0.138-0.182-0.005-0.271c0.311-0.208,0.623-0.415,0.94-0.627c0.133,0.127,0.137,0.181,0.013,0.351
	c-0.013,0.018-0.018,0.044-0.018,0.067c0,0.208-0.125,0.345-0.264,0.477c-0.128,0.122-0.125,0.125-0.063,0.307
	c-0.189,0.089-0.379,0.178-0.587,0.275c0.091,0.298,0.34,0.067,0.498,0.194c-0.143,0.226-0.372,0.04-0.565,0.117
	c0.115,0.1,0.22,0.191,0.353,0.306c-0.136,0.019-0.261,0.046-0.386,0.048c-0.102,0.002-0.169,0.021-0.196,0.128
	c-0.048,0.189-0.182,0.308-0.333,0.418C117.295,42.947,117.201,42.943,117.076,42.865z"/>
<path fill-rule="evenodd" clip-rule="evenodd" fill="#B4B4B4" d="M119.055,47.768c-0.035,0.225,0.042,0.324,0.265,0.396
	c0.15,0.048,0.291,0.13,0.437,0.198c-0.097,0.173-0.167,0.305-0.246,0.432c-0.018,0.028-0.064,0.051-0.1,0.056
	c-0.317,0.041-0.634,0.081-0.952,0.109c-0.063,0.006-0.13-0.043-0.195-0.066c0.003-0.029,0.006-0.059,0.009-0.088
	c0.126-0.018,0.26-0.07,0.378-0.047c0.37,0.072,0.368,0.083,0.614-0.246c-0.188,0-0.367,0-0.545,0
	c-0.01-0.016-0.02-0.032-0.03-0.048c0.103-0.092,0.206-0.184,0.328-0.293c-0.211-0.085-0.403-0.163-0.641-0.258
	c0.157-0.096,0.277-0.174,0.403-0.242c0.023-0.012,0.071,0.022,0.107,0.036c0.059,0.022,0.116,0.045,0.174,0.068L119.055,47.768z"/>
<path fill-rule="evenodd" clip-rule="evenodd" fill="#B4B4B4" d="M118.744,44.381c0,0.206,0.357,0.368,0.024,0.581
	c0.085,0.045,0.207,0.07,0.224,0.126c0.034,0.111,0.01,0.24,0.01,0.386c-0.25-0.182-0.563-0.239-0.682-0.545
	c0.126-0.051,0.253-0.285,0.19-0.382c-0.045-0.07-0.144-0.131-0.227-0.147c-0.081-0.015-0.173,0.033-0.282,0.057
	c0.056-0.14,0.108-0.273,0.185-0.466c0.066,0.279,0.232,0.308,0.465,0.279c-0.037-0.214-0.048-0.434-0.12-0.633
	c-0.042-0.119-0.017-0.145,0.09-0.188c-0.016,0.178,0.114,0.165,0.222,0.175C118.917,43.906,118.864,44.298,118.744,44.381z"/>
<path fill-rule="evenodd" clip-rule="evenodd" fill="#B4B4B4" d="M122.671,61.233c0.084-0.034,0.186-0.075,0.314-0.128
	c-0.053,0.251-0.305,0.145-0.408,0.283c-0.098,0.132-0.248,0.226-0.399,0.356c-0.016-0.09-0.025-0.145-0.033-0.193
	c-0.226-0.099-0.318-0.313-0.43-0.496c-0.034-0.057,0.021-0.214,0.085-0.271c0.103-0.095,0.246-0.199,0.372-0.198
	c0.113,0.001,0.263,0.085,0.319,0.238C122.536,60.947,122.597,61.065,122.671,61.233z"/>
<path fill-rule="evenodd" clip-rule="evenodd" fill="#B4B4B4" d="M122.409,56.703c0.052,0.214-0.134,0.396,0.078,0.501
	c-0.014,0.387-0.356,0.521-0.574,0.751c-0.047,0.05-0.16,0.036-0.26,0.056c0.09-0.32,0.162-0.606,0.43-0.804
	c0.097-0.071,0.135-0.222,0.204-0.333C122.316,56.823,122.354,56.778,122.409,56.703z"/>
<path fill-rule="evenodd" clip-rule="evenodd" fill="#B4B4B4" d="M125.509,37.858c-0.086,0.115-0.134,0.179-0.19,0.255
	c0.292,0.127,0.568,0.248,0.874,0.381c-0.049,0.049-0.107,0.155-0.188,0.175c-0.055,0.014-0.161-0.077-0.207-0.145
	c-0.116-0.173-0.18-0.194-0.396-0.116c-0.045,0.016-0.12-0.019-0.166-0.051c-0.068-0.048-0.125-0.116-0.221-0.208
	c-0.006-0.098-0.019-0.251-0.025-0.405c-0.007-0.139,0.1-0.208,0.218-0.131C125.313,37.683,125.405,37.774,125.509,37.858z"/>
<path fill-rule="evenodd" clip-rule="evenodd" fill="#B4B4B4" d="M116.503,43.735c-0.102-0.03-0.204-0.042-0.287-0.088
	c-0.151-0.084-0.145-0.25,0.015-0.322c0.145-0.065,0.299-0.115,0.453-0.152c0.147-0.035,0.246,0.067,0.226,0.218
	c-0.01,0.076-0.031,0.151-0.045,0.227c-0.021,0.115-0.033,0.23-0.206,0.184c-0.035-0.009-0.086,0.043-0.14,0.073
	C116.514,43.825,116.508,43.776,116.503,43.735z"/>
<path fill-rule="evenodd" clip-rule="evenodd" fill="#B4B4B4" d="M118.197,51.744c0.021-0.049,0.029-0.109,0.064-0.145
	c0.165-0.162,0.171-0.219,0.017-0.387c0.03-0.028,0.059-0.058,0.09-0.084c0.026-0.021,0.056-0.041,0.099-0.072
	c-0.1-0.075-0.192-0.144-0.292-0.219c-0.045,0.053-0.088,0.105-0.149,0.177c0-0.083,0-0.143,0-0.167
	c0.207-0.105,0.395-0.201,0.603-0.307c0,0.106-0.003,0.199,0.001,0.292c0.003,0.058,0.008,0.12,0.03,0.171
	c0.142,0.326,0.075,0.498-0.255,0.656c-0.062,0.029-0.118,0.07-0.177,0.106C118.218,51.76,118.207,51.752,118.197,51.744z"/>
<path fill-rule="evenodd" clip-rule="evenodd" fill="#B4B4B4" d="M120.939,52.494c-0.124,0-0.199,0.002-0.273,0
	c-0.154-0.006-0.234-0.066-0.225-0.24c0.008-0.146,0.051-0.307-0.092-0.432c-0.019-0.016,0.008-0.133,0.043-0.154
	c0.08-0.05,0.107-0.248,0.27-0.105c0.092,0.08,0.182,0.139,0.123,0.29c-0.022,0.058,0.024,0.143,0.042,0.215
	C120.86,52.199,120.896,52.332,120.939,52.494z"/>
<path fill-rule="evenodd" clip-rule="evenodd" fill="#B4B4B4" d="M130.077,71.821c-0.102,0.146-0.137,0.34-0.345,0.379
	c-0.039,0.008-0.092,0.017-0.118-0.002c-0.16-0.117-0.313-0.242-0.475-0.369C129.596,71.56,129.845,71.557,130.077,71.821z"/>
<path fill-rule="evenodd" clip-rule="evenodd" fill="#B4B4B4" d="M119.021,73.751c-0.038-0.033-0.075-0.066-0.119-0.105
	c-0.037,0.073-0.072,0.139-0.103,0.207c-0.112,0.25-0.112,0.251-0.402,0.219c-0.067-0.279,0.112-0.555,0.394-0.605
	c0.153-0.027,0.216,0.055,0.226,0.289L119.021,73.751z"/>
<path fill-rule="evenodd" clip-rule="evenodd" fill="#B4B4B4" d="M116.292,44.398c0.103,0.17,0.18,0.297,0.251,0.416
	c-0.057,0.091-0.141,0.17-0.149,0.257c-0.008,0.078,0.067,0.164,0.108,0.25c-0.258,0.048-0.336-0.063-0.258-0.354
	c0.025-0.095,0.11-0.177,0.123-0.271C116.378,44.613,116.326,44.521,116.292,44.398z"/>
<path fill-rule="evenodd" clip-rule="evenodd" fill="#B4B4B4" d="M125.122,39.142c-0.099-0.239-0.419-0.286-0.341-0.559
	c0.101,0.043,0.192,0.065,0.265,0.117c0.08,0.058,0.161,0.133,0.201,0.219C125.265,38.958,125.181,39.042,125.122,39.142z"/>
<path fill-rule="evenodd" clip-rule="evenodd" fill="#B4B4B4" d="M119.199,50.512c0,0.052,0.011,0.1-0.001,0.106
	c-0.125,0.067-0.208,0.153-0.191,0.308c0.001,0.01-0.06,0.04-0.088,0.037c-0.025-0.003-0.064-0.041-0.064-0.063
	c-0.004-0.1-0.018-0.207,0.013-0.297C118.924,50.431,119.071,50.529,119.199,50.512z"/>
<path fill-rule="evenodd" clip-rule="evenodd" fill="#B4B4B4" d="M118.45,45.833c0.047,0.146,0.085,0.245,0.106,0.347
	c0.005,0.024-0.049,0.061-0.076,0.091c-0.073-0.071-0.162-0.134-0.21-0.219C118.256,46.028,118.361,45.938,118.45,45.833z"/>
<path fill-rule="evenodd" clip-rule="evenodd" fill="#B4B4B4" d="M119.635,49.729c-0.026,0.046-0.05,0.093-0.078,0.137
	c-0.071,0.112-0.128,0.238-0.22,0.328c-0.058,0.057-0.169,0.06-0.256,0.086c0.022,0.011,0.045,0.021,0.067,0.032
	c0.154-0.199,0.309-0.398,0.463-0.598C119.619,49.72,119.627,49.724,119.635,49.729z"/>
<path fill-rule="evenodd" clip-rule="evenodd" fill="#B4B4B4" d="M117.682,44.315c0.051-0.042,0.086-0.07,0.133-0.107
	c0.051,0.124,0.209,0.212,0.039,0.367C117.795,44.485,117.744,44.408,117.682,44.315z"/>
<path fill-rule="evenodd" clip-rule="evenodd" fill="#B4B4B4" d="M116.083,45.746c0.075,0.087,0.123,0.143,0.196,0.227
	c-0.12,0.023-0.191,0.038-0.299,0.059C116.015,45.935,116.041,45.863,116.083,45.746z"/>
<path fill-rule="evenodd" clip-rule="evenodd" fill="#B4B4B4" d="M127.427,51.594c0.084-0.105,0.168-0.211,0.264-0.33
	c0.075,0.24-0.154,0.246-0.23,0.357C127.449,51.612,127.438,51.604,127.427,51.594z"/>
<path fill="#B2C6CB" d="M208.333,60.489c-0.144,0.009-0.274,0.07-0.39,0.184c-0.117,0.121-0.255,0.274-0.412,0.458
	s-0.331,0.359-0.52,0.529c-0.189,0.168-0.396,0.314-0.62,0.438c-0.226,0.121-0.463,0.184-0.716,0.184
	c-0.27,0-0.521-0.11-0.756-0.332c-0.233-0.221-0.463-0.502-0.688-0.839c-0.225-0.338-0.443-0.702-0.654-1.088
	c-0.212-0.386-0.428-0.748-0.648-1.086c-0.219-0.339-0.447-0.62-0.681-0.84c-0.233-0.221-0.478-0.332-0.729-0.332
	c-0.253,0-0.487,0.071-0.708,0.213c-0.22,0.141-0.464,0.345-0.729,0.613c-0.265,0.269-0.569,0.601-0.91,0.994
	c-0.343,0.395-0.756,0.843-1.242,1.342c-0.305-0.546-0.561-1.019-0.769-1.419c-0.207-0.399-0.4-0.729-0.581-0.987
	c-0.178-0.259-0.359-0.449-0.538-0.572c-0.182-0.122-0.397-0.184-0.649-0.184c-0.261,0-0.514,0.062-0.762,0.184
	c-0.247,0.123-0.52,0.31-0.816,0.557c-0.296,0.251-0.627,0.563-0.991,0.939c-0.365,0.377-0.785,0.813-1.261,1.313
	c-0.288-0.519-0.521-0.968-0.696-1.348c-0.175-0.382-0.335-0.692-0.479-0.933c-0.145-0.24-0.289-0.418-0.432-0.536
	c-0.144-0.118-0.32-0.177-0.527-0.177c-0.243,0-0.464,0.056-0.667,0.163c-0.202,0.106-0.433,0.282-0.688,0.522
	c-0.256,0.238-0.557,0.555-0.903,0.944c-0.344,0.387-0.772,0.854-1.286,1.4c-0.123,0.108-0.256,0.228-0.403,0.346
	c-0.362,0.288-0.469,0.368-0.753,0.52c-0.282,0.149-0.584,0.277-0.904,0.382c-0.318,0.103-0.646,0.155-0.979,0.155
	c-0.178,0-0.347-0.165-0.505-0.496c-0.157-0.329-0.313-0.761-0.465-1.297c-0.153-0.536-0.301-1.147-0.446-1.835
	c-0.142-0.686-0.294-1.388-0.451-2.103s-0.322-1.416-0.493-2.104c-0.17-0.686-0.353-1.298-0.546-1.834
	c-0.193-0.535-0.404-0.969-0.634-1.297c-0.229-0.329-0.479-0.495-0.748-0.495c-0.37,0-0.7,0.116-0.993,0.352
	c-0.292,0.236-0.558,0.549-0.796,0.938c-0.238,0.391-0.45,0.833-0.634,1.327c-0.184,0.493-0.351,0.999-0.499,1.517
	c-0.149,0.518-0.284,1.024-0.405,1.517c-0.121,0.494-0.236,0.936-0.344,1.327c-0.107,0.391-0.214,0.702-0.317,0.938
	c-0.104,0.235-0.213,0.353-0.331,0.353c-0.125,0-0.267-0.194-0.425-0.585c-0.157-0.392-0.333-0.908-0.526-1.552
	c-0.193-0.646-0.402-1.377-0.626-2.195c-0.226-0.819-0.461-1.655-0.709-2.513c-0.247-0.855-0.505-1.693-0.775-2.512
	c-0.27-0.818-0.551-1.549-0.843-2.194c-0.293-0.644-0.59-1.162-0.891-1.553c-0.301-0.39-0.609-0.585-0.925-0.585
	c-0.233,0-0.462,0.15-0.686,0.451c-0.227,0.303-0.442,0.716-0.648,1.243c-0.207,0.526-0.407,1.143-0.6,1.849
	c-0.194,0.705-0.378,1.463-0.553,2.271c-0.176,0.81-0.339,1.646-0.493,2.511c-0.153,0.867-0.295,1.722-0.425,2.57
	c-0.13,0.845-0.247,1.659-0.351,2.44c-0.103,0.779-0.195,1.491-0.277,2.13c-0.125-0.686-0.276-1.46-0.451-2.32
	c-0.175-0.861-0.38-1.741-0.615-2.64c-0.233-0.898-0.494-1.775-0.782-2.631c-0.288-0.855-0.598-1.618-0.931-2.287
	c-0.333-0.667-0.692-1.208-1.08-1.616c-0.387-0.407-0.795-0.614-1.227-0.614c-0.27,0-0.541,0.072-0.81,0.213
	c-0.27,0.142-0.542,0.326-0.817,0.557c-0.273,0.231-0.539,0.495-0.795,0.791c-0.256,0.297-0.503,0.6-0.743,0.91
	c-0.238,0.311-0.463,0.613-0.674,0.91c-0.211,0.296-0.398,0.563-0.56,0.797c-0.072,0.16-0.101,0.303-0.088,0.432
	c0.014,0.127,0.055,0.212,0.122,0.254c0.068,0.041,0.164,0.037,0.291-0.014c0.125-0.053,0.27-0.173,0.432-0.361
	c0.171-0.178,0.355-0.388,0.553-0.627c0.198-0.24,0.4-0.469,0.607-0.685c0.207-0.216,0.416-0.399,0.626-0.55
	c0.212-0.152,0.417-0.227,0.614-0.227c0.136,0,0.278,0.15,0.426,0.451c0.147,0.301,0.298,0.707,0.451,1.214
	c0.152,0.509,0.305,1.091,0.459,1.749c0.152,0.66,0.303,1.347,0.451,2.062c0.149,0.716,0.293,1.435,0.433,2.159
	c0.139,0.723,0.268,1.399,0.384,2.024c0.117,0.626,0.223,1.182,0.317,1.666c0.095,0.483,0.173,0.849,0.236,1.093
	c0.081,0.273,0.216,0.511,0.406,0.713c0.188,0.202,0.404,0.368,0.646,0.494c0.243,0.127,0.5,0.209,0.769,0.246
	c0.27,0.039,0.524,0.025,0.763-0.034c0.238-0.063,0.445-0.17,0.621-0.325c0.175-0.155,0.294-0.368,0.357-0.642l0.054,0.028
	c0.278-0.752,0.515-1.579,0.708-2.478c0.193-0.897,0.363-1.801,0.513-2.709c0.148-0.908,0.283-1.79,0.405-2.646
	c0.121-0.854,0.245-1.612,0.37-2.271c0.126-0.659,0.266-1.186,0.418-1.582c0.153-0.395,0.338-0.592,0.554-0.592
	c0.152,0,0.303,0.174,0.452,0.521c0.148,0.35,0.301,0.81,0.459,1.383c0.156,0.574,0.321,1.227,0.492,1.953
	c0.17,0.73,0.36,1.477,0.567,2.239c0.206,0.762,0.431,1.506,0.674,2.235c0.243,0.73,0.513,1.381,0.81,1.955s0.625,1.035,0.984,1.383
	c0.36,0.349,0.76,0.521,1.201,0.521c0.233,0,0.452-0.136,0.654-0.407c0.202-0.273,0.393-0.631,0.573-1.073
	c0.18-0.443,0.348-0.946,0.506-1.511c0.158-0.563,0.307-1.144,0.452-1.735c0.144-0.593,0.284-1.172,0.419-1.735
	c0.134-0.565,0.267-1.067,0.397-1.512c0.13-0.44,0.261-0.798,0.391-1.07c0.13-0.272,0.268-0.41,0.411-0.41
	c0.145,0,0.275,0.138,0.392,0.41c0.117,0.272,0.225,0.63,0.325,1.07c0.099,0.444,0.2,0.946,0.303,1.512
	c0.104,0.563,0.22,1.143,0.351,1.735c0.13,0.592,0.281,1.172,0.453,1.735c0.17,0.564,0.371,1.067,0.6,1.511
	c0.229,0.442,0.5,0.8,0.81,1.073c0.311,0.271,0.672,0.407,1.086,0.407c0.576,0,1.123-0.083,1.64-0.253
	c0.517-0.169,0.992-0.382,1.423-0.637c0.433-0.253,0.813-0.521,1.146-0.802c0.333-0.282,0.585-0.587,0.792-0.813
	c0.094-0.103,0.162-0.183,0.225-0.261c0.045-0.042,0.093-0.087,0.138-0.128c0.192-0.179,0.42-0.268,0.682-0.268
	c0.116,0,0.243,0.083,0.384,0.247c0.141,0.165,0.283,0.373,0.432,0.621c0.148,0.249,0.307,0.52,0.473,0.812s0.335,0.563,0.506,0.811
	c0.171,0.25,0.344,0.456,0.52,0.622c0.176,0.164,0.357,0.247,0.547,0.247c0.152,0,0.323-0.078,0.513-0.234
	c0.188-0.154,0.387-0.349,0.593-0.585c0.206-0.234,0.418-0.489,0.634-0.762c0.217-0.272,0.43-0.526,0.642-0.763
	c0.211-0.235,0.41-0.43,0.601-0.586c0.188-0.154,0.365-0.231,0.527-0.231c0.089,0,0.192,0.077,0.31,0.231
	c0.116,0.156,0.242,0.351,0.377,0.586c0.136,0.236,0.279,0.49,0.433,0.763c0.152,0.272,0.308,0.527,0.465,0.762
	c0.157,0.236,0.313,0.431,0.466,0.585c0.153,0.156,0.306,0.234,0.458,0.234c0.144,0,0.328-0.078,0.554-0.234
	c0.226-0.154,0.468-0.347,0.729-0.577c0.262-0.23,0.524-0.483,0.79-0.756c0.265-0.271,0.518-0.524,0.755-0.754
	c0.238-0.231,0.448-0.424,0.628-0.579s0.314-0.232,0.404-0.232c0.081,0,0.178,0.077,0.29,0.232s0.239,0.348,0.379,0.579
	c0.139,0.229,0.303,0.482,0.491,0.754c0.188,0.272,0.404,0.525,0.642,0.756c0.239,0.23,0.505,0.423,0.803,0.577
	c0.297,0.156,0.635,0.234,1.012,0.234c0.559,0,1.068-0.098,1.531-0.29c0.464-0.192,0.881-0.427,1.249-0.698
	c0.369-0.272,0.692-0.561,0.971-0.86c0.279-0.302,0.513-0.561,0.701-0.777c0.181-0.207,0.274-0.388,0.283-0.543
	c0.009-0.154-0.028-0.269-0.115-0.338C208.593,60.509,208.478,60.479,208.333,60.489"/>
<path fill="#B2C6CB" d="M211.814,61.801c-0.063-0.15-0.147-0.281-0.257-0.395c-0.106-0.115-0.233-0.203-0.377-0.269
	s-0.296-0.098-0.458-0.098c-0.163,0-0.314,0.032-0.46,0.098c-0.144,0.065-0.27,0.153-0.376,0.269
	c-0.109,0.113-0.193,0.244-0.257,0.395c-0.063,0.151-0.095,0.311-0.095,0.48c0,0.168,0.031,0.329,0.095,0.479
	s0.147,0.283,0.257,0.395c0.106,0.113,0.232,0.202,0.376,0.27c0.146,0.065,0.297,0.097,0.46,0.097c0.162,0,0.314-0.031,0.458-0.097
	c0.144-0.067,0.271-0.156,0.377-0.27c0.109-0.111,0.193-0.244,0.257-0.395c0.064-0.15,0.095-0.312,0.095-0.479
	C211.909,62.111,211.879,61.952,211.814,61.801"/>
</svg>
